<svg xmlns="http://www.w3.org/2000/svg" xmlns:xlink="http://www.w3.org/1999/xlink" width="1173.333" height="1173.333" viewBox="0 0 880 880" preserveAspectRatio="xMidYMid meet" xmlns:v="https://vecta.io/nano"><use xlink:href="#B"/><path d="M676.2 120l-6.2 5.1-7.1 6-6.9 5.9c-2.4 1.9-5.3 4.5-6.6 5.8-1.6 1.6-2.4 1.9-2.7 1-.4-.9-.6-.8-.6.3-.1.9-1.1 2.4-2.3 3.5-1.2 1-1.8 1.3-1.3.5.5-1 .4-1.2-.3-.7-.7.4-1.2 1.3-1.2 2.1 0 1.2-2.7 3-4.3 2.7-.4-.1-.6.4-.5 1 .2.7-.5 1.2-1.4 1.2-1-.1-1.6.1-1.5.5.3.9-4.5 6.1-5.7 6.1-.6 0-1.7 1-2.5 2.1-1 1.8-1.5 1.9-2.2.8s-.9-.8-.9.8c0 1.3-.3 2.3-.8 2.3-.7 0-2.3 1.3-10.9 8.9-1.9 1.7-3.4 2.4-3.7 1.7-.2-.6-.5-.3-.5.7-.1.9-1.2 2.2-2.6 2.9-1.3.6-2.2 1.5-1.9 1.9.3.5.2.9-.3.9-.4 0-2.1 1.1-3.7 2.5-1.6 1.3-3.2 2.2-3.7 1.9s-.6.3-.2 1.2c.3 1 .2 1.5-.3 1.2-.5-.4-2.5.9-4.4 2.8s-4 3.2-4.8 2.9c-.7-.2-1 0-.7.5.4.6-.1 1.7-1 2.6-1.3 1.4-1.8 1.4-3.3.2-1.5-1.1-1.5-1.1-.5.3 1 1.3.6 2-2.5 4.6l-6.1 5.2c-2.6 2.3-4.7 2.8-3.5.9.4-.7.3-.8-.5-.4-.9.6-.9 1.1-.1 2.1.9 1 .6 1.5-1.2 2.1-1.3.4-2.6.7-3 .6-.5-.1-.7.4-.5 1.1.1.6-.4 1.1-1.1.9-.8-.1-1.1.2-.8.7s0 1.4-.8 2c-1.1.9-1.5.9-1.9-.1-.4-.9-.6-.8-.6.3-.1 1-1.8 3.1-3.8 4.8-2.1 1.7-4.8 4.1-6 5.3-1.3 1.3-2.8 1.8-3.9 1.4-1.4-.5-1.5-.4-.5.8.9 1.1.8 1.5-.6 2.1-1 .5-2.1.7-2.6.7-.4-.1-.6.2-.5.6.4 1.3-6 6.4-7.2 5.7-.6-.3-.7 0-.4.9s.2 1.6-.4 1.6c-.5 0-2.3 1.4-4 3.1s-3.5 2.8-4.1 2.4c-.6-.3-1.1 0-1.1.7 0 2-5.7 7.1-6.3 5.6-.4-1-.6-1-.6.1-.1 1.2-2.7 3.9-9.6 9.9-1.4 1.2-2.5 2-2.5 1.7s-1.6 1.1-3.5 3.1c-1.9 1.9-3.5 3.2-3.5 2.8 0-.5-.7.2-1.6 1.4-.8 1.2-2 2-2.5 1.7-.5-.4-.9.1-.9.9 0 .9-.3 1.6-.7 1.6-.5 0-2.5 1.6-4.5 3.5-2.1 1.8-3.8 3.2-3.8 3 0-.3-1.6 1-3.6 2.8l-6.1 5.4c-1.4 1.3-3 2-3.6 1.6-.5-.3-.7-.1-.4.4.9 1.4-1.9 3.7-3.2 2.8-.7-.3-.8 0-.5.9.6 1.5-.6 2.1-2.9 1.7-.5-.1-.6.2-.3.7.5.8-2.8 4.4-4.6 5-.4.1-1.9 1.4-3.3 2.8s-3 2.2-3.5 1.9c-.6-.4-.7.1-.3 1.2.3 1 .3 1.5-.1 1.1-.4-.3-2 .7-3.5 2.3-1.6 1.6-3.1 2.9-3.4 2.9-.4 0-1.9 1.2-3.5 2.8-1.5 1.5-5 4.5-7.7 6.7-2.8 2.2-5.3 4.4-5.6 4.9-.4.5-1.2.6-1.8.2-.7-.5-.9-.1-.5.8.3.9.2 1.6-.3 1.6s-1.9.9-3.1 2.1c-1.2 1.1-2.7 1.7-3.2 1.4-.6-.3-.7.1-.4.9.3.9.2 1.6-.3 1.6-1 0-2.8 1.4-9 7.1-1.8 1.6-3.8 2.8-4.5 2.7-.7-.2-1.2.2-1.3.9 0 1.7-6.8 7.3-8.2 6.8a1.76 1.76 0 0 0-1.9.7c-.4.7-.3.8.4.4s1.2-.3 1.2.3c0 .5-.6 1.4-1.4 1.8-1.4.8-10 7.9-12.2 10-.7.7-1.5 1.3-1.8 1.3s-1.9 1.4-3.5 3.1c-1.7 1.7-3.5 2.8-4 2.4-.7-.3-.8 0-.5.9s.2 1.6-.3 1.6-2.7 1.5-4.8 3.4-4.3 3.2-4.8 2.9c-.6-.3-.7-.1-.3.5.3.6 0 1.4-.8 1.9-.8.4-3.6 2.7-6.3 5l-9.8 8.3c-2.7 2.2-6.5 5.5-8.3 7.1s-3.8 2.7-4.4 2.3-.8-.3-.5.3c.8 1.2-5.2 6.5-6.5 5.7-.5-.3-.7-.2-.6.3.5 1.6-4 5.5-5.4 4.7-.7-.4-1-.4-.6.1 1.1 1.1-1.2 3.6-2.5 2.8-.5-.3-.7-.1-.4.4.4.6-.3 1.8-1.6 2.6-1.2.8-3.7 2.9-5.4 4.6-1.8 1.7-3.6 3.1-4.1 3.1-.4 0-1.5.8-2.3 1.7-2.5 2.8-5.8 5.3-7 5.3-.5 0-.8.4-.5.9.7 1-2.2 2.4-3.4 1.6-.5-.3-1.2 0-1.6.6-.4.8-.3.9.4.5 2.8-1.7.9 1.4-2.3 3.9-2 1.4-4.3 3.4-5.3 4.4-.9.9-4.2 3.7-7.2 6.1-6.2 5-11.2 9.4-14.5 12.7-1.3 1.2-2.5 2-2.8 1.7-.4-.4-.1 2.6.8 7.1.5 2.6 5.8 5.7 8.1 4.8 1.2-.5 1.5-.3.9.6-.6 1-.3 1.1 1.1.3 2.2-1.1 6.3-1 8.3.2.9.6 1.2.5.8 0-.7-1.1 3.8-1.3 4.8-.2.4.4 1.7.2 2.8-.4 1.6-.8 2.2-.8 2.5.1.2.6.9.8 1.5.4 1.8-1.1 14.1-1 15 .1.4.7 1 .8 1.5.1.4-.6 3.4-1 6.7-.9 4.6 0 5.9.4 5.7 1.5s0 1.1 1-.1 3.6-1.5 12-1.5c6 0 10.8.3 10.8.7 0 .5.5.8 1.1.8.5 0 .7-.6.3-1.3-.5-.8-.2-.8.9.2 1.3 1 1.7 1 1.7.1s.4-.9 1.7.1c1.1 1 1.4 1 .9.1-1.2-2 .3-1.4 2.7 1.1 1.2 1.3 1.6 1.5.9.6-1.1-1.4-1.1-1.8 0-2.1.7-.3 1.9.2 2.6 1.1 1 1.3 1.1 1.3.7.1s.4-1.5 4-1.6c4.2 0 5.1.5 4.5 3.1-.1.5.2.7.6.3s1.2-.3 1.9.2c.8.7 1.2.5 1.2-.5 0-.7-.3-1.3-.6-1.2s-.7-.3-.8-.8c-.2-.6 1.4-1 3.5-1 4.6-.1 5.5.3 4.5 1.9-.4.7.1.3 1.1-.9 1.3-1.4 2-1.6 2.3-.7.3.6 1 .9 1.6.5s3.7-.7 6.8-.8c5.3-.1 5.6 0 4.6 1.7-.7 1-1.5 1.8-2 1.8-.4 0-.6.3-.4.7.3.5-.5 1.7-1.6 2.8s-1.6 1.4-1.2.6c.5-1 .4-1.2-.4-.7-.6.4-.9 1.2-.6 1.7s-.3 1.9-1.4 3.1c-1.2 1.2-2.1 2.5-2.1 3 0 .4-.5.8-1.1.8-.5 0-.8-.4-.4-.9.3-.5.1-1.2-.4-1.5-1.1-.7-.9 1.3.3 3.3.7 1.1.5 1.3-.8.8-1.1-.4-1.5-.3-1 .4.3.6-.3 2-1.4 3.2-1 1.2-2.7 3.7-3.8 5.4-1.2 2.3-2 2.9-2.6 2-.5-.8-.8-.4-.8 1 0 1.3-.4 2.3-1 2.3-.5 0-1 .7-1 1.5s-.5 1.5-1.1 1.5c-.5 0-.7-.6-.3-1.3s.3-.9-.2-.4c-.9.9-1 1.3-1.3 4.3-.1 1.1-.7 1.4-2.3.9-1.8-.5-1.9-.4-.8.4 1.2.8 1.1 1.3-.8 3.4-1.2 1.3-2.2 2.9-2.2 3.6 0 .8-.8 1-2.2.6-1.6-.4-1.9-.4-.9.3 1.1.8.5 2.1-2.9 6.6-2.9 3.8-4.8 5.5-5.8 5.1-1.2-.4-1.2-.3-.3.9.9 1.1.9 1.6-.1 2.3-.7.4-1.8 1.7-2.5 2.8-.6 1.1-1.6 1.9-2.3 1.7-.6-.1-.9.1-.6.6.7 1.1-2.9 6.4-3.7 5.5-.4-.3-.7-.1-.7.6s-.9 2.6-2.1 4.2c-1.8 2.6-2.3 2.8-3.7 1.7-1.5-1.2-1.6-1.1-.3.4 1.1 1.5.8 2.3-2.3 6-2 2.3-3.6 4.6-3.6 5.1s-.7.7-1.5.4c-.8-.4-1.7-.2-2 .4-.4.5-.3.9.2.8 2.1-.4 2.1.3.1 2.3-1.3 1.3-2.6 2.2-3 2.1-.4-.2-.5.3-.2 1.1.8 2-1.4 3-3.3 1.4-1.5-1.2-1.5-1.1-.2 1 1.2 2.1 1.2 2.5-.3 3.6-1 .7-1.8 1.6-1.8 2 0 .7-5.1 7.5-7.6 10.3-.7.7-1.5.9-1.8.5-.4-.3-.5 0-.2.8.4.9-.8 3-2.7 5-1.9 1.9-3.5 3.9-3.8 4.5-.2.5-.7.9-1.1.8-.5-.2-.7 0-.6.5.2 1.3-1.4 4.2-2.4 4.2-.5 0-.6-.5-.2-1.2s.3-.8-.4-.4c-.6.4-.9 1.2-.6 1.9.2.7-.4 2.2-1.4 3.2-1 1.1-2 2.4-2.3 3-.2.5-.7.9-1.1.8-.5-.2-.8.7-.8 1.9s-.3 1.8-.6 1.5c-.4-.4-2 1.5-3.7 4.1-3.2 5.1-4.6 6.4-6.1 5.5-.5-.4-.7.1-.3 1.1.7 1.7-.6 3.7-5.6 8.8-1.5 1.5-2.4 2.8-2 2.8s-.1.7-1.1 1.5c-1.1.8-1.7 1.5-1.3 1.5s-.1.9-1 2c-1.3 1.5-1.9 1.7-2.6.7-.6-.8-.7-.7-.4.5.3.9-.3 2.8-1.4 4.1-1 1.4-1.9 3.1-1.9 3.8s-.3.9-.6.6c-.4-.4-2 1.4-3.7 3.9-1.6 2.5-3.9 5-5.1 5.4-1.2.5-1.6.9-.9.9.7.1 1 .8.7 1.6-.4.8-1 1.3-1.4 1s-1.3.9-2 2.5c-1.2 3-3.7 4.4-2.6 1.4.3-.9.2-1.2-.5-.9-.6.4-.8 1.4-.4 2.2.8 2.3-6.5 11.9-8 10.5-.5-.4-.5-.1-.1.6.5.8-.2 2.2-1.8 3.7-1.5 1.4-2.7 2.8-2.8 3.2-.3 1.7-3.8 6.8-4.5 6.5-.5-.1-.8.3-.8.8 0 .6-.7 1.5-1.5 2s-1.1 1-.6 1-.3 1.1-1.8 2.5-2.4 2.5-2 2.5-.3.8-1.4 1.9c-1.2 1-2.2 2.3-2.2 2.9s-1 1.8-2.2 2.6c-1.2.9-1.9 1.6-1.5 1.6.5 0-.4 1.6-1.9 3.5-1.4 1.9-3 3.2-3.5 2.9s-.7.1-.4.8-.8 2.7-2.3 4.5c-1.6 1.7-3.2 3.8-3.5 4.7-.4.9-1 1.6-1.6 1.6-1 0-2.2 3.3-2.6 7.4-.4 4.2 3.7 7.8 8.5 7.4 1.9-.2 4.2-1 5.1-1.8s3.8-3.3 6.4-5.5 5.6-4.9 6.6-5.9c1.1-1.1 1.9-1.7 1.9-1.3 0 .3 1.6-.9 3.5-2.9 2.2-2.2 4-3.2 4.8-2.7 1.8 1.1 3.8 1.3 3.1.2-.3-.5-.9-.7-1.4-.4s-1.1.1-1.4-.3c-.8-1.3 4.4-5.4 6-4.8.7.3 1.6 0 2-.6s.3-.8-.4-.4c-.6.3-1.3.2-1.6-.2-.3-.5.6-1.4 1.9-2 1.4-.7 2.5-1.6 2.5-2.1 0-.6.7-.7 1.7-.4 1 .4 1.4.2 1-.4-.9-1.4 1.9-3.7 3.2-2.8.7.3.8 0 .5-.9s-.1-1.6.5-1.6c1 0 3.3-1.9 13-10.8 2.9-2.6 5.3-4 6.4-3.8 1.5.4 1.6.2.6-1-.9-1.1-.8-1.4.5-1.4.9 0 1.6-.5 1.6-1.1 0-.5.4-.8.9-.5s1.1-.4 1.4-1.6c.4-1.2.9-1.9 1.3-1.5.4.3 2-.8 3.5-2.6 1.6-1.7 2.9-2.9 2.9-2.5s1.3-.6 2.9-2.2c1.5-1.7 3.2-3 3.7-3s1.8-1.1 2.8-2.5c1.6-2.1 2.1-2.3 3.4-1.3 1.3 1.1 1.4 1.1.8 0-1-1.6 1.3-4.5 3-3.8.8.3 1.1 0 .7-1-.3-.7-.1-1.4.5-1.4s3.1-2 5.6-4.5c2.6-2.5 5.7-4.5 6.9-4.6 1.2 0 1.6-.3.9-.6-1-.4-.8-.9.7-2 1.2-.8 2.6-1.1 3.3-.7s.8.3.4-.4c-.8-1.4 3.1-5.5 4.5-4.7.5.4.8.1.7-.7-.2-.7.5-1.2 1.4-1.2 1 .1 1.4-.4 1.1-1.1-.2-.7.5-1.6 1.6-2 1.2-.3 1.9-1.1 1.6-1.6-.4-.5 0-.9.7-.9s1.9-.9 2.6-2.1 1.6-1.8 1.9-1.5c.4.3 1.3-.4 2.1-1.5 1.2-1.7 1.6-1.8 2.3-.8.7 1.1.9.9 1-.6.1-2.4 11.4-11.9 13.1-10.9.6.4.8.3.5-.3-.4-.6 1.8-3.3 4.9-5.9 5.7-5 8.3-6.7 6.9-4.4-.5.8-.4 1.1.3.6.6-.4.8-1.4.5-2.4-.3-.9-.2-1.4.2-1 .5.5 1.4-.1 2.2-1.2 1.5-2.1 3.9-2.9 2.7-.8-.4.7-.3.8.4.4.6-.4.9-1.3.5-2.2-.3-.9 0-1.4.8-1.2s1.3-.3 1.2-1c-.2-.6.3-1.2 1.1-1.2s1.7-.7 2-1.6c.4-.9.9-1.4 1.2-1.1s1.7-.6 3.1-2.1 2.9-2.6 3.4-2.5c.5.2.8 0 .6-.5-.1-.4.1-.8.6-.9.4-.2 1.8-1.3 3-2.6 4.6-4.9 16-13.6 17-13 .6.3.7.1.4-.5-.4-.5 1.7-3 4.5-5.3 2.9-2.4 5.7-5 6.2-5.8.7-1.1 1-1.1 1.7 0s.9 1.1.9-.2c0-1.6 6.8-7.6 8.2-7.2.4.2.8-.4.8-1.3 0-1 .6-1.4 1.4-1.1 1 .4 1.3.1.9-.9-.3-.7 0-1.4.6-1.4s2-.9 3.1-2c1.2-1.2 2.5-1.8 3-1.5.6.3.7-.1.4-1-.4-.9-.2-1.5.4-1.3.5.2 1.9-.8 3-2 1.3-1.4 2.6-2.1 3.3-1.6.7.4.9.3.6-.3-.4-.6.7-2.2 2.3-3.7 1.7-1.4 3-2.4 3-2.2s1.5-1 3.3-2.7c5.3-5 9-7.7 9.9-7.1.4.3.5-.2.2-1-.4-1.1 0-1.6 1-1.6.9 0 1.6-.3 1.6-.8 0-.4 2.8-3 6.1-5.7l7.3-6c.6-.6 4-3.5 7.6-6.5s7-6.2 7.7-7 1.3-1.2 1.3-.8 1.3-.5 2.8-2c1.6-1.5 5.8-5.2 9.5-8.2s6.7-5.8 6.7-6.3c0-.4.4-.7.9-.7.6 0 2.2-1.1 3.7-2.5 1.4-1.3 3.1-2.2 3.7-1.8.5.3.7.1.4-.4-.9-1.4 2.9-4.7 4.4-3.7.7.4 1 .3.6-.3-.8-1.3 2.9-4.7 4.2-3.8.7.3.8 0 .5-.9s-.1-1.6.4-1.6c.6 0 2.2-1 3.4-2.3 1.3-1.2 4.1-3.7 6.3-5.5 3.7-2.9 8.8-7.2 15.3-12.9 1.4-1.2 2.9-2 3.3-1.7.4.2 1.1-.1 1.5-.7.5-.8.2-1-.7-.5-.8.4.2-.6 2.1-2.3 3.4-3 5.8-3.5 5.2-1.2-.1.7.2 1 .8.6.8-.5.7-1.1-.1-2.1-.7-.9-.8-1.8-.3-2.2.5-.5 3.5-2.9 6.6-5.6 3.2-2.6 6.2-4.5 6.7-4.2.5.4 1.3.1 1.7-.5.4-.8.3-.9-.4-.5s-1.2.4-1.2-.1c0-.4 1.6-1.9 3.5-3.2s3.5-2.8 3.5-3.4c0-.5.8-.3 1.7.4 1.4 1.1 1.5 1.1.9.1-.9-1.5 2.1-4.6 9.2-9.9 2-1.6 4.3-3.6 5-4.5.7-1 1.8-1.8 2.4-1.8.5 0 1.9-1.2 3-2.6 1.2-1.4 2.7-2.3 3.5-2s1.2.2.9-.2c-.3-.5 1-2.3 2.9-4 3.4-3.2 5.2-4.2 3.9-2-.5.7-.3.8.5.4.7-.5 1-1.1.7-1.4s.1-1.3 1-2.3c1.7-1.9 3.8-9.2 2.3-8.3-.5.3-.9-.2-.9-1 0-2.6-4.6-4.8-10-4.8-3.6.1-4.8-.2-4.3-1.1s.3-.9-.8 0c-1.9 1.6-19.1 1.5-20.1-.1-.6-.8-.8-.7-.8.1 0 .7-.9 1.3-2 1.3s-2-.6-2-1.3c0-.8-.4-.7-1 .3-.9 1.3-1.1 1.3-2 0-.6-1-1-1.1-1-.3 0 1.7-5.2 1.7-6.9 0-1.1-1-1.3-1-.7 0 .4.8.1 1.3-.8 1.3-.8 0-1.7-.6-1.9-1.3-.4-.9-.6-.9-.6 0-.1.7-.6 1.3-1.2 1.3-.5 0-.8-.4-.5-.8.3-.5-.1-.9-.9-.9s-1.2.4-.9.9c.8 1.3-1 1-2.5-.5-1.1-.9-1.2-.9-.7 0 .5 1-.4 1.2-3.3 1.1-2.2-.1-3.8-.5-3.5-1 .3-.4 0-.8-.5-.8-.6 0-1.1.4-1.1 1 0 .5-.5 1-1.1 1-.5 0-.8-.4-.5-.8.3-.5-.1-.9-.9-.9s-1.2.4-.9.9c.3.4-.2.8-1.1.8-1 0-1.3-.5-.9-1.3.6-.8.3-.8-.9.2-1.9 1.5-5.2.7-4.1-1 .4-.8.3-.9-.5-.5-.6.4-.9 1.1-.6 1.6.3.4-1.1.8-3 .8-2.4 0-3.3-.4-2.8-1.2s.3-.8-.8 0c-1.8 1.5-7.2 1.5-8.1 0-.6-.8-.8-.7-.8.1 0 .7-.7 1.3-1.5 1.3s-1.5-.6-1.5-1.3c0-.9-.2-.9-.8.1-1 1.4-6.1 1.3-8.1-.2-1-.8-1.3-.8-.9-.1.5.7-2.2 1.1-7.8 1.2s-8.2-.2-7.7-1c.4-.6.1-.7-.8-.1-2.5 1.5-5.6 1.5-7-.2-1.1-1.4-1-1.9.8-3.4 1.2-1 1.9-2 1.6-2.4-.3-.3.2-.8 1.1-1.2.9-.3 1.6-1.2 1.6-1.9 0-1.3 3.1-4.5 4.5-4.5.4 0 .1.8-.6 1.7-1.1 1.5-1 1.4.9-.1 2.2-1.9 3-3.2 1.3-2.1-.5.3-1.2.1-1.5-.4-.7-1 5-7.2 5.9-6.3.3.4.3-.2-.1-1.3-.6-1.4-.4-1.7.9-1.2 1 .4 1.4.2 1.1-.6-.6-1.7 4.6-7.8 5.9-7 .6.3.7.1.3-.5-.9-1.4 4.2-8.4 5.5-7.6.5.3.9.2.8-.3-.5-2.8 4-9 5.6-7.5.5.4.5.2.1-.5-.6-1.1.6-3.1 4-6.7.6-.6 1.6-2.2 2.3-3.4s1.7-2 2.3-1.6.8.3.4-.4c-.3-.6.5-2.2 1.8-3.5 1.4-1.4 2.2-2.8 1.9-3.1-.4-.3-.1-.6.5-.6.7 0 1.2-.7 1.2-1.6 0-.8.4-1.3.8-1 .5.3 1.7-.9 2.7-2.7 2.1-3.7 8.3-11.7 10.3-13.4.7-.6 1.3-1.5 1.3-2 0-1.7 5-6.3 6.2-5.7.9.5.9.4 0-.6-1-1.1-.8-1.8 1-3.4 1.3-1.2 2.6-2.9 3-3.9.3-.9 1.1-1.7 1.7-1.7.5 0 1-.6 1-1.3 0-.6 1.5-2.9 3.4-4.9s3.3-3.8 3.1-4c-.1-.2.7-1.2 1.8-2.3s1.6-1.4 1.2-.6c-.5.9-.4 1.2.3.7.6-.4.9-1.3.5-2.1-.3-.8 0-1.5.6-1.5s1.1-.7 1.1-1.6c0-.8.4-1.3.9-.9.5.3 1.2-.4 1.6-1.5.3-1.1 1.1-2 1.6-2s.9-.6.9-1.3c0-1.8 3.5-4.9 4.4-4 .4.4.5.1.2-.7-.4-.9.7-2.9 2.4-4.8 1.7-1.7 2.9-3.2 2.6-3.2s.4-1.1 1.6-2.5c1.1-1.3 2.5-2.2 2.9-1.9.5.3.7-.1.4-.8-.6-1.6 5-8.2 6.3-7.4.5.3.9-.1.9-.9s-.5-1.1-1.1-.8c-.6.4-.3-.3.8-1.5 1-1.2 2.4-1.8 3-1.5 1.7 1.1 3.7 1.2 3 .2-.3-.5-.9-.7-1.4-.4-1.7 1-2.3-1.8-.7-3 .9-.7 1.4-1.5 1-1.8-.3-.4.1-.7 1.1-.7.9 0 1.5-.4 1.2-.8-.3-.5.8-2.3 2.3-4 1.6-1.7 2.6-3.3 2.3-3.6s0-.6.6-.6c.5 0 1.3.6 1.6 1.2.3.7.3.3 0-1-.4-1.5 0-2.4 1-2.8.9-.3 1.4-1 1.1-1.4-.3-.5 0-1.2.8-1.7.7-.4 2.1-2.1 3-3.6 2.9-4.4 5-6.6 5.9-6.1.5.3.8.2.7-.3-.3-1.8.2-2.9 2.7-5.8 1.4-1.7 3-2.9 3.6-2.7.5.1.6-.3.2-.9-.4-.7.3-2 1.7-3.1 1.3-1.1 1.7-1.6.9-1.2-.9.4-.6-.2.5-1.3s2.4-1.8 2.9-1.5.7-.2.3-1.1c-.3-.9-.3-1.7.1-1.9s2-2.1 3.7-4.3c4.9-6.6 5.9-7.8 9-10.9 1.7-1.6 2.4-2.6 1.8-2.2-.9.5-1.1.2-.7-.8.3-.9 1-1.3 1.5-1s.9 0 .9-.6c0-1.7 2.6-4 3.5-3.2.5.4.5.1.1-.6s.3-2.5 1.8-4.3c1.4-1.7 2.6-3.5 2.6-3.9 0-.5.7-.7 1.5-.4 1 .4 1.3.2 1-.7-.3-.8.8-2.9 2.4-4.6 1.6-1.8 2.6-3.5 2.2-3.9-.3-.4.2-.4 1.2-.1 1.1.4 1.6.3 1.2-.3-.7-1.1 5.9-10.2 6.9-9.5.3.3.4.2.1-.1-.2-.4.3-1.9 1.3-3.3 2.9-4.2 2.7-7.7-.4-10.6s-8.3-3.1-11.2-.5zm-51.8 66.7c-1.6 2.1-3.4 4.4-4.1 5.1s-1.3 1.8-1.3 2.3-1.7 2.5-3.7 4.5c-2.1 2-3.1 3.4-2.3 3 1.3-.6 1.3-.5 0 .6-.9.7-2.7 2.9-4 4.8s-3 3.9-3.7 4.3-1.3 1.5-1.3 2.2c0 .8-.5 1.5-1.1 1.5-.5 0-.8-.4-.5-.9.4-.5-.4-.6-1.6-.3-1.9.5-2 .7-.5 1 .9.2 1.7.8 1.7 1.4 0 .5-.6.8-1.4.5-1-.4-1.4 0-1.1 1.3.2 1.2-.5 2.6-1.8 3.5-1.2.8-1.8 1.5-1.3 1.5s-.1.9-1.4 2-2 2-1.7 2c.4 0-.1.9-1 1.9-.9 1.1-2 1.8-2.3 1.6-.4-.2-.7.1-.7.8 0 2.5-3.6 6.7-5.7 6.7-1.6 0-1.8.3-.7.9 1.1.7.9 1.3-1 3.2-1.3 1.3-2.7 2.3-3.1 2.2-.4-.2-.5.3-.2 1.1s-.4 2-1.5 2.8c-1.2.8-1.8 1.8-1.5 2.1.4.4-.1.9-1 1.3-.9.3-1.6 1.2-1.6 2 0 .7-.9 1.9-2 2.7s-1.7 1.7-1.2 2.2c.4.4-.1.5-1 .2-1.2-.4-1.5-.2-1.1.9.3.7 0 1.4-.7 1.4-.6 0-.8.4-.5 1 .3.5.2 1-.3 1-.6 0-1.9 1.6-3.1 3.6-1.3 2.1-2.6 3.2-3.3 2.8-.6-.4-.8-.3-.5.3.6.9-1.4 4.2-4.8 7.9-.5.6-1.6 2.1-2.4 3.2-.8 1.2-1.9 1.8-2.4 1.5-.6-.3-.7-.1-.4.4.4.6-.3 2.4-1.5 3.9-2.6 3.5-4.4 5.4-3.4 3.7.3-.6.2-1.4-.3-1.8-.6-.3-.8.4-.6 1.5.2 1.2-.5 3-1.6 4.1-1.7 1.7-2.3 1.8-3.7.8-1.6-1.2-1.6-1.2 0 .5 1.7 2 1.7 2.2-2.8 7.1-1.2 1.3-1.9 2.7-1.5 3.1.3.4-.2.4-1.1.1-1.2-.4-1.5-.2-1.1.9.3.7-.1 1.4-.8 1.4s-1 .3-.6.6c.6.7-.2 1.7-4.5 6.4-1.6 1.5-2.8 3.3-2.8 3.8 0 1.4-3.6 4.3-4.4 3.5-.4-.4-.5-.1-.2.7s-.7 2.9-2.2 4.6c-1.5 1.8-3.4 4.2-4.2 5.4s-2 2.8-2.5 3.4c-.6.6-2.2 2.7-3.5 4.6-1.4 1.9-3.2 4.2-4 5.1-3.6 4-5.8 6.9-5.2 6.9.4 0 0 .6-.9 1.3-.8.7-2.4 2.5-3.4 4-1.4 2.2-2 2.5-2.7 1.5-.6-.9-.7-.6-.3.8.6 2.4-1.5 3.9-3.4 2.3-.6-.5-.5-.2.3.7 1.5 1.8 1.4 2-5.2 8.9-1.8 1.9-2.9 3.5-2.6 3.5.8 0-6.3 9-8.5 10.7-.8.7-1.2 1.3-.8 1.3.8 0-.3 1.6-4.3 6-1.4 1.5-2.6 3.6-2.8 4.6-.1 1.1-.4 2.9-.6 4.2-.2 1.2-.1 2.1.1 1.8.2-.2 1.6.7 3 2 2.3 2.1 6 3 10.1 2.5.8-.1 2.1.4 3 1.1 1.2 1 1.4 1 .8 0-.5-.9.4-1.2 3.4-1.2 2.9 0 3.9.4 3.4 1.2s-.3.8.7.2c1.6-1 33-1.4 32.4-.4-.2.4.2.7 1 .7s1.2-.4.9-.8c-.6-1.1 5.7-.6 7.5.5 1 .6 1.2.5.7-.2-.4-.7-.1-1.2.9-1.2.9 0 1.4.4 1.1.9-.4.5.2.8 1.1.6 1-.2 1.8-.4 1.8-.6 0-.1 2.6-.3 5.7-.4 5.2-.2 5.7 0 4.6 1.4-.8 1-.4.9 1-.3 2.6-2.3 4.1-1.4 2.1 1.2-.8 1-.4.8.8-.5 2.4-2.5 5.3-3.1 5.4-1.1 0 1 .2 1 .6 0 .2-.6.9-1.2 1.4-1.2.6 0 .8.4.5.9-.3.4.4 1.7 1.7 2.7 2.2 1.9 2.2 1.9.4-.2-1.9-2.3-1.4-3.4 1.7-3.4 1.7 0 1.8.2.6 1-.9.6-1 1-.3 1 .6 0 1.5-.4 1.8-1 .8-1.3 10.5-.8 10.5.5 0 .5.4.5.8-.2.5-.7 4-1.1 10.4-1 9.2.2 9.6.2 8.1 1.9-.9 1-2.2 1.8-3 1.8s-1.1.4-.8 1c.6 1-.8 1.4-3.4 1-1.3-.1-1.3.1-.2 1.4.8.9.9 1.6.3 1.6s-2.5 1.2-4.2 2.7c-2.6 2.2-3.4 2.4-4.2 1.2-.8-1.1-.9-1-.4.4.6 1.9-1.7 5.1-2.8 4-.3-.4-.6-.1-.6.6s-.4.9-1 .6c-.5-.3-1 .1-1 .9 0 .9-.3 1.6-.8 1.6-.4 0-2.1 1.2-3.8 2.7-6.8 6.1-8.5 7.3-9.5 6.8-.5-.4-.9-.3-.8.2.4 2.5-.3 3.5-2.1 3-1.1-.3-1.7-.1-1.4.4.6 1.1-7.4 8.6-8.8 8.1-.4-.1-.8.5-.8 1.4 0 .8-.4 1.3-.9 1s-1.1.1-1.5.9c-.3.8-1.3 1.5-2.1 1.5-.9 0-1.4.4-1 .9.3.6-.4 1.5-1.7 2.2-1.2.6-3.3 2.2-4.7 3.5s-3.2 2.4-4 2.4-1.1.3-.8.7c.8.7-1.1 3.3-2.5 3.3-.5 0-.6-.5-.2-1.2s.3-.8-.5-.4c-.6.4-.9 1.1-.6 1.6.3.4-1.5 2.4-4 4.4-2.4 2-5.1 4.4-6 5.2-.8.8-1.9 1.2-2.5.9-.6-.4-.9-.2-.8.3.3 1-3.8 5.1-8.8 8.9-1.6 1.2-4.8 3.9-7.1 6-7.3 6.6-8.5 7.5-10 6.8-1.3-.4-1.4-.3-.3 1 .8 1 .9 1.5.1 1.5-1.1 0-1.8.5-8.9 7.1-2.3 2.1-4.4 3.9-4.7 3.9s-1.5.9-2.7 2c-1.7 1.6-2.5 1.7-3.7.8-1.3-1-1.4-1-.4.2 1 1.1.9 1.7-.4 3.2-.9 1-1.9 1.8-2.3 1.8s-2.9 2-5.6 4.5-5.4 4.3-6.1 4.1c-.8-.3-1 .1-.6 1.1.5 1.3.2 1.5-1.1 1-.9-.4-1.5-.3-1.1.2.6 1.1-3.5 4.2-4.7 3.5-.4-.3-.5.2-.2 1 .3.9.2 1.6-.3 1.6s-1.9.9-3.1 2.1c-1.2 1.1-2.7 1.7-3.4 1.3-.6-.4-.8-.3-.5.3.4.5-1.7 3-4.4 5.4l-7.6 6.7c-1.3 1.2-2.8 2-3.3 1.7s-1.2 0-1.6.6c-.5.8-.3.9.7.4.8-.5.5.1-.5 1.3-1.1 1.2-2.3 2.2-2.7 2.2-.5 0-2.2 1.3-3.7 3-1.6 1.6-3.3 3-3.8 3s-1.5.9-2.2 2.1c-.8 1.2-1.9 1.8-2.8 1.5-.8-.3-1.2-.2-.9.4.3.5-1.1 2.1-3.1 3.7-2 1.5-5.1 4.3-7 6.1-3.8 3.7-4.1 3.7-6.4 1.7-1.4-1.3-1.7-1.3-1.7-.1 0 .8.5 1.4 1 1.3s1.2.4 1.4 1c.3.7-.3 1.3-1.2 1.3s-1.4.4-1.1.8c.2.4-1.1 1.8-3 3.1s-3.4 2.7-3.4 3.2-.9.9-2 .9-1.9.4-1.7.9c.2.9-2.2 3.2-8.2 7.9-1.9 1.5-4.6 3.8-6.1 5.2s-3.8 3.3-5.1 4.4c-1.3 1-3.4 2.8-4.6 3.9-1.9 1.7-2.5 1.8-4 .6-1.5-1.1-1.6-1.1-.5.1 1.2 1.4 1.8 3.9.6 2.7-.3-.3-2.4 1.3-4.7 3.5s-5.8 5.2-7.7 6.7c-1.9 1.4-4.7 3.8-6.2 5.3-2.9 2.9-4.4 3.7-3.2 1.6.4-.8.3-1-.2-.5s-.9 1.2-.9 1.6c0 .8-3.1 4.1-3.8 4.1-.6 0-.1-7.5.6-8.6.3-.5-.3-1-1.3-1s-1.6.5-1.2 1.1c1.2 1.8.8 9.6-.5 10.7-.7.5-2 .7-2.9.4-1.5-.6-1.5-.4-.3 1.1s1.2 1.6-.4 1c-1-.4-1.6-.3-1.3.2.7 1.1-2 3.4-3.2 2.7-.6-.3-.9 0-.8.8.1 1.5-8.2 8.8-9.4 8.1-.4-.3-1 .4-1.3 1.5s-1 2-1.7 2c-.6 0-.8-.5-.4-1.2s.3-.8-.4-.4c-.6.4-.8 1.4-.5 2.4.3.9.3 1.4 0 1.1-.4-.3-2.6 1.1-4.8 3.2-2.3 2.1-4.6 3.6-5 3.3-.5-.3-.9.2-.9 1.1s-.4 1.3-1 1c-.5-.3-1-.1-1 .5 0 1.4-4.9 5.5-6.7 5.5-.6 0-1.5.4-2 .9-.4.5-.3.6.5.2.6-.4 1.2-.2 1.2.3 0 .6-.6 1.1-1.4 1.1s-1.7.7-2 1.6c-.3.8-1 1.2-1.6.9-.5-.3-1 0-1 .9 0 .8-.4 1.6-.9 1.8-1.4.5-8.3 6.1-11.4 9.3-3.3 3.4-2.2.5 1.2-3.2 1.2-1.2 2.1-2.5 2.1-2.8s1.3-1.9 2.9-3.4c1.6-1.6 2.7-3.2 2.4-3.5-.4-.3 0-.6.7-.6s1.1-.3.7-.6c-.3-.4 0-1.3.8-2 .7-.8 2.3-2.6 3.4-4 2-2.5 2.2-2.6 3.9-1 1 .9 2.2 1.6 2.7 1.6.4 0-.4-.9-1.9-2.1-2.1-1.7-2.4-2.4-1.5-3.5 1.6-2 2.9-1.7 2.3.4-.5 1.4-.4 1.4.4.2.7-1 .8-1.8.1-2.6-.7-.9-.4-1.6 1.1-2.4 1.1-.6 1.8-1.5 1.5-2.1-.4-.5-.2-.9.4-.9.5 0 1.8-1.3 2.7-2.9 1-1.7 2.1-2.8 2.4-2.6.4.2 1.3-1.1 2-3 .8-1.9 1.8-3.5 2.3-3.5s.7.7.3 1.5c-.8 2.2.2 1.8 1.5-.6.8-1.5.8-1.9 0-1.5-.6.4-1.1.2-1.1-.4 0-.7.9-1.4 1.9-1.7 1.1-.3 1.8-1 1.5-1.7s.4-2.1 1.6-3.1c1.1-1 2-2.2 2-2.8 0-.5.8-1.7 1.8-2.6 1.1-.9 2.4-2.6 3.1-3.9.8-1.5 1.8-2.1 2.7-1.8.8.3 1.2.1.9-.4s-.1-1.8.4-2.9c.9-1.5 2-1.9 5.6-1.6 2.5.1 4.3 0 3.9-.4-.3-.3-1.9-.6-3.5-.6s-2.8-.5-2.6-1c.1-.6.7-.9 1.4-.9.6.1.9-.4.7-1-.6-1.6 3.5-6.8 4.7-6 .5.3.7.9.5 1.3-.3.4.1.8.9.8 1.3 0 1.2-.3-.1-1.8-1.4-1.6-1.5-2.1-.3-3.6 2.6-3.4 3.7-4.2 4.3-3.5.4.3.4-.1 0-1.1-.7-2 .6-2.2 2.6-.4 1.2 1 1.2.9 0-.6-1.2-1.6-1.2-2 .1-2.8.8-.5 1-.9.5-.9s.3-1.1 1.8-2.5c1.4-1.3 2.5-2.6 2.4-2.7-.7-.8 4.7-6.6 5.7-6.2.7.3 1.6.1 2-.5.3-.7 0-.8-.9-.5-2 .8-2.1-.3-.2-2.1.7-.8 1.7-1.1 2.1-.7.5.4.5.2.2-.4-.8-1.4 2.1-5.6 3.4-4.9.5.3.6-.1.3-.9-.4-.9.1-1.8 1-2.2.9-.3 1.4-1 1.1-1.4-.3-.5.5-1.6 1.7-2.4 1.2-.9 1.9-1.6 1.4-1.6-.4 0 .3-1.3 1.6-2.8 1.2-1.6 3.4-4.3 4.7-6s2.7-2.9 3.2-2.6.6-.2.3-1c-.3-.9-.1-1.6.4-1.6.6 0 1.4-.9 1.7-2.1.6-1.9.8-1.9 1.9-.3 1.1 1.5 1.2 1.3.9-1.3-.4-2.4.1-3.5 2.1-5 1.4-1.2 2.6-2.4 2.6-2.7 0-1.4 4.4-6.5 5.1-6 .5.3.7-.1.4-.8s1.4-3.4 3.8-5.9c2.3-2.5 4.3-5 4.5-5.5.3-1.3 2.7-1.1 2.5.2-.1.7.8 2 2 3 2.2 1.9 2.2 1.9.4-.2-.9-1.1-1.5-2.3-1.2-2.6s-.1-1.1-.9-1.7c-1.3-1.1-1.2-1.5.4-3.1 1-1 2.2-2.6 2.8-3.6.9-1.6 1.2-1.6 2.9-.4 1.5 1.3 1.5 1.1-.2-.9-1.5-1.9-1.6-2.3-.4-1.9.9.4 1.6.1 1.6-.6 0-1.6 3.3-6.6 4.4-6.6.5 0 .8-.6.6-1.3-.1-.6.4-1.1 1.1-1 .6.2 1.2-.5 1.2-1.5.1-1.8 3-6.3 3-4.6.1.5.8-.4 1.6-1.9s1.9-2.5 2.4-2.2c.6.3.7-.1.4-.9-.4-1-.1-1.6.7-1.6.7 0 .9-.3.6-.7-.4-.3.2-1.2 1.3-2s2-2.1 2-2.9.7-1.4 1.6-1.4c.8 0 1.3-.4.9-.9-.3-.5.2-1.7 1.2-2.6 2.5-2.5 5.5-8.5 4.2-8.5-.5 0-.8-.4-.5-.9.4-.5-.5-2.3-1.9-3.9-2.5-2.9-2.6-3-13.2-3-18.5-.1-18.5-.1-17.8-1.5.4-.6.1-.5-.7.3-1 1.3-2.8 1.5-9.1 1-4.2-.3-7.7-.3-7.7 0 0 .6-21.6.2-24.2-.4-1-.2-1.8-.1-1.8.2 0 .5-42.7.7-50.5.2-.5 0 .4-.9 2-2 1.7-1.1 2.6-2 2.2-2-.5 0 1.2-1.6 3.8-3.5 2.5-2 5.1-3.3 5.7-2.9.7.4.8.3.4-.5-.4-.6 0-1.8.8-2.7.9-.8 1.6-1.3 1.6-1s1.1-.6 2.5-2 3-2.2 3.5-1.9c.6.4.7-.1.3-1.1-.5-1.4-.3-1.6 1.1-1.1.9.4 1.5.3 1.2-.2-.3-.4 1.1-2.1 3-3.7 7.9-6.4 10.9-9 13.1-11.2 1.3-1.3 2.3-2 2.3-1.6s.9-.5 2.1-2c1.1-1.4 2.5-2.6 3-2.6.6 0 2.1-1.2 3.4-2.6 1.4-1.5 2.9-2.3 3.6-1.8.7.4.9.3.6-.4-.4-.5 1.7-2.9 4.5-5.3 2.9-2.4 6-5 6.9-5.9 4.9-4.7 8.1-7 8.9-6.5.6.4.7-.2.3-1.2-.3-1-.3-1.5.1-1.2.4.4 1.8-.4 3.2-1.8 1.3-1.3 2.9-2.1 3.4-1.8.6.4.7-.1.3-1.2-.3-1-.3-1.5.2-1.1.4.4 1.9-.4 3.2-1.8 1.2-1.4 2.3-2.3 2.3-2.1s1.5-1 3.3-2.7 5.3-4.7 7.7-6.6c2.3-1.9 5-4.2 5.8-5.2.8-.9 2.1-1.4 2.9-1.1.9.4 1.1 0 .7-1.1-.3-.9-.1-1.6.4-1.6.6 0 2.3-1.1 3.7-2.5s2.5-2.4 2.5-2.1 1.4-.8 3.1-2.5c1.6-1.6 3.4-2.7 4-2.4.5.4.9 0 .9-.7 0-1.8 5.1-5.9 6.4-5.1.6.3.8.3.4-.2-1.1-1.1 1.2-3.6 2.5-2.8.6.3.7.1.3-.6-.4-.6 0-1.4 1.1-1.8 1-.3 3-2 4.6-3.6 1.5-1.7 2.7-2.8 2.7-2.5 0 .4 1.9-1.1 4.3-3.3 7.7-7.1 8.7-8 8.7-7.6 0 .2 2.1-1.6 4.6-4 2.6-2.3 5-4.1 5.4-3.8s1-.5 1.3-1.6c.3-1.2 1-1.8 1.6-1.5.5.4 1.2-.3 1.6-1.4s1.1-1.8 1.6-1.5c.5.4 1.2-.1 1.5-1 .4-1 1.3-1.4 2.2-1 .9.3 1.3.3.9-.1-1-1 1.3-3.5 2.6-2.7.5.3.7.2.4-.4-.3-.5.3-1.7 1.4-2.6 1-.9 1.9-1.5 1.9-1.3s1.4-.9 3.1-2.5 3.5-2.6 4-2.3.8.1.7-.4c-.4-1.3 5-6.2 6.8-6.2.8 0 1.3-.4 1-.9-.6-1 4.4-4.7 5.7-4.3.5.1.6-.2.3-.7-.7-1.1 1.8-3.3 2.7-2.4.4.3.7-.2.7-1.2s.3-1.6.6-1.2c.3.3 1.7-.6 3-2 1.2-1.3 2.8-2.2 3.3-1.8.7.3.8 0 .5-.9-.6-1.4.5-2.1 2.8-1.7.5 0 .7-.3.5-.7-.4-1.3 7.1-7.4 8.3-6.7.6.4 1 .3.9-.2-.3-1.8.1-3.6.8-3 .3.4 1.2-.2 2-1.3s2.1-2 3-2 1.3-.3 1-.7c-.9-.8 4.4-4.4 5.5-3.7.4.3.5-.2.2-1-.3-.9-.1-1.6.4-1.6.6 0 1.8-.8 2.8-1.8 1-.9 2.1-1.7 2.6-1.7.4 0 .7-.3.6-.7-.2-.3 1.1-1.7 2.7-2.9 1.7-1.3 4.4-3.6 6-5.1 1.7-1.6 3.5-2.6 4.2-2.4.8.3 1-.1.6-1.2-.3-.9-.3-1.4.2-1 .4.4 1.8-.6 3.2-2.3 2.6-3 4.6-3.9 3.7-1.5-.3.8-.1 1.7.4 2s.8-.6.6-1.9c-.3-2.9 1.1-4.1 3-2.6.9.8 1.3.7 1.3-.4 0-.8-.4-1.2-.9-.9-1.3.9-.9-.6.7-2.2.8-.9 1.9-1.3 2.5-.9.6.3.7-.1.4-.9-.3-.9-.2-1.6.4-1.6.5 0 2.4-1.3 4.2-3 1.8-1.6 3.6-2.7 4.1-2.4s.9-.3.9-1.2c0-1 .3-1.5.6-1.2.7.8 4.2-2.4 3.8-3.3-.2-.4 1-1.2 2.6-1.9s2.7-1.6 2.4-2.1.1-.6.9-.3 2-.3 2.8-1.3c1.3-1.6 1.2-1.7-.3-.4-1 .7-1.8.9-1.8.4s1.1-1.5 2.5-2.1c1.4-.7 2.8-1.9 3.1-2.7.6-1.4.8-1.3 2.1.2.8 1 1.2 1.3.9.6-.9-1.8.5-4.5 2-3.9.8.3 1.3.2 1.3-.2-.4-2.2.3-3 2-2.7 1.4.2 1.8-.1 1.4-1.1-.3-.7.2-1.7 1.1-2 .9-.4 3.2-2.1 5-3.8 8-7.4 9.6-8.7 10.6-8.1.6.4.7-.1.4-1.2-.5-1.6-.3-1.5 1.2.2 1.5 1.8 1.6 1.8 1 .2-.4-1.4.8-3.1 4.7-6.7 2.8-2.7 5.4-4.9 5.6-5 .2 0-.9 1.7-2.5 3.7zM489.5 392c.3.5-.1 1-1 1s-1.3-.5-1-1c.3-.6.8-1 1-1s.7.4 1 1zm117.7-190.7c-.8 1-.6 1.3 1.1 1.4 1.2 0 1.6-.1.9-.4-.6-.3-1-.9-.6-1.4.8-1.4-.2-1.1-1.4.4z"/><path d="M604.4 206.5c-.4.8-1.1 1.2-1.7.8-.6-.3-.7-.1-.3.5 1 1.6 1.4 1.5 2.6-.8.6-1.1.8-2 .5-2s-.8.7-1.1 1.5z"/><use xlink:href="#C"/><use xlink:href="#D"/><path d="M591.3 221.8c.1 1.6.7 2.9 1.4 2.9s.9-.5.5-1.1c-.3-.6-.7-1.7-.8-2.4-.4-2.7-1.2-2.2-1.1.6z"/><use xlink:href="#E"/><path d="M586.7 222.7c.3.7.6 1.3.8 1.3s.5-.6.8-1.3c.3-.8-.1-1.4-.8-1.4s-1.1.6-.8 1.4z"/><use xlink:href="#F"/><path d="M580.2 227.9c-1.1.6-.9.9.6 1.3s1.9.2 1.5-.8c-.6-1.6-.4-1.6-2.1-.5zm5.2.2c-.3.6-.3 1.3 0 1.6.3.4.6.1.6-.5s.7-.9 1.5-.6c.8.4 1.5.4 1.5.1 0-1.1-3-1.6-3.6-.6z"/><use xlink:href="#G"/><path d="M569.4 235.9c0 1.3.6 1.7 1.9 1.3 1-.2 1.6-.5 1.5-.6-.2-.1-1-.7-1.8-1.3-1.3-1-1.6-.8-1.6.6z"/><use xlink:href="#H"/><path d="M561.3 243c.2 1 1.5 1.5 3.6 1.4 2 0 3 .4 2.7 1.1-.2.6.2 1.2.9 1.2.8 0 1.1-.7.7-1.5-.3-.9-.1-1.3.5-.9.5.3 1 0 1-.8s-.5-1.1-1.1-.7c-1.7 1.1-7 .9-7.9-.3-.5-.6-.7-.4-.4.5zm8.7 6.6c0 .1.6.7 1.4 1.3 1 .9 1.5.8 1.9-.2.3-.8-.3-1.3-1.4-1.3s-1.9.1-1.9.2zm-12.8 1.3c-1.1.6-1 1 0 1.9 1.1.8 1.4.7 1.4-.9 0-1 0-1.9-.1-1.9l-1.3.9zm-7.4 1.9c-1.1 1.5-1.1 1.5.3.4.9-.7 2.4-1 3.3-.6.9.3 1.6.2 1.6-.3 0-1.6-3.8-1.2-5.2.5z"/><use xlink:href="#I"/><use xlink:href="#J"/><path d="M546.1 256.6c0 1.1.3 1.4.6.6.3-.7.2-1.6-.1-1.9-.3-.4-.6.2-.5 1.3zm17.7.2c-.3 1.1 0 1.9.7 1.9s1-.8.7-1.9c-.2-1-.6-1.8-.7-1.8s-.5.8-.7 1.8z"/><use xlink:href="#K"/><path d="M554.7 257.3c-.3.8.1 1.4.8 1.4s1.1-.6.8-1.4c-.3-.7-.6-1.3-.8-1.3s-.5.6-.8 1.3z"/><use xlink:href="#D" x="-55" y="49"/><use xlink:href="#L"/><use xlink:href="#M"/><use xlink:href="#N"/><use xlink:href="#O"/><use xlink:href="#P"/><use xlink:href="#G" x="-34" y="32"/><path d="M554.8 266.7c.6.2.9 1 .6 1.5-.4.7-.2.8.5.4 1.3-.9.5-2.6-1.2-2.5-.9 0-.8.2.1.6z"/><use xlink:href="#B" x="-118" y="152"/><use xlink:href="#Q"/><use xlink:href="#R"/><path d="M552 270.5c-.7.8-1.7 1.2-2.3.8s-.7-.1-.3.6c.6.9 1.3.8 2.7-.5 1-.9 1.9-1.9 1.9-2.1 0-.7-.8-.2-2 1.2zm-13 1.3c0 .4.9.8 2 .9s2-.2 2-.5c0-.4-.9-.8-2-.9s-2 .2-2 .5z"/><use xlink:href="#P" x="-8" y="8"/><use xlink:href="#S"/><use xlink:href="#T"/><use xlink:href="#U"/><use xlink:href="#V"/><use xlink:href="#L" x="-15" y="15"/><path d="M542.6 277.9c-.4.5.3.7 1.4.4 2.3-.6 2.6-1.3.6-1.3-.8 0-1.7.4-2 .9z"/><use xlink:href="#D" x="-46" y="66"/><path d="M519.3 280.7c0 .7.5.9 1.1.5.6-.3 2.6-.7 4.3-.7 1.8-.1 3.5-.4 3.8-.6.3-.3-1.7-.5-4.3-.5-3.1.1-4.9.5-4.9 1.3z"/><use xlink:href="#B" x="-126" y="164"/><use xlink:href="#W"/><use xlink:href="#W" x="-29" y="1"/><use xlink:href="#X"/><use xlink:href="#Y"/><use xlink:href="#Z"/><use xlink:href="#a"/><use xlink:href="#R" x="-23" y="17"/><path d="M530.9 286.2c1.1 1.5 1.1 2.1 0 3.5-1.2 1.7-1.2 1.7.6 0 1.9-1.7 1.9-1.7 0-3.5-1.8-1.6-1.8-1.6-.6 0zm11.7-.1c.4.8 3 .6 3.8-.2.3-.3-.5-.5-1.9-.5-1.3 0-2.2.3-1.9.7z"/><use xlink:href="#J" x="-48" y="32"/><use xlink:href="#b"/><use xlink:href="#c"/><use xlink:href="#U" x="-16" y="16"/><use xlink:href="#d"/><path d="M523.7 292.8c-1.5 1.6-1.5 1.9-.2 1.9.8 0 1.3-.3 1-.5-.3-.3 0-1.1.6-1.9 1.7-2 .5-1.6-1.4.5z"/><use xlink:href="#R" x="-47" y="25"/><path d="M516 294.5c-.7.8-1.7 1.2-2.4.8-.6-.3-.7-.2-.3.2.4.5 1.5 1 2.3 1.1.9.1 1.3 0 1-.3-.3-.4-.1-1.2.5-2 .6-.7.9-1.3.6-1.3-.2 0-1 .7-1.7 1.5z"/><use xlink:href="#P" x="-8" y="28"/><use xlink:href="#R" x="-31" y="29"/><use xlink:href="#e"/><use xlink:href="#f"/><use xlink:href="#U" x="-40" y="24"/><use xlink:href="#Z" x="-24" y="16"/><use xlink:href="#g"/><use xlink:href="#W" x="-24" y="20"/><use xlink:href="#h"/><use xlink:href="#W" x="-26" y="22"/><path d="M497.1 303.3c-.8 1-.7 1.4.2 1.4.8 0 1.4-.6 1.4-1.4 0-.7-.1-1.3-.2-1.3-.2 0-.8.6-1.4 1.3z"/><use xlink:href="#i"/><use xlink:href="#Q" x="-6" y="34"/><use xlink:href="#j"/><path d="M520 306.5c-.7.9-1.1 1.7-.9 2 .3.2 1-.5 1.7-1.5 1.4-2.4 1-2.6-.8-.5z"/><use xlink:href="#Y" x="-24" y="24"/><use xlink:href="#T" x="-12" y="32"/><use xlink:href="#k"/><use xlink:href="#K" x="-21" y="51"/><use xlink:href="#D" x="-108" y="96"/><use xlink:href="#l"/><use xlink:href="#Q" x="-48" y="42"/><use xlink:href="#m"/><path d="M495.2 311.5c.3.3 1.6.8 2.8 1s2 .1 1.6-.2c-.4-.4-1.6-.8-2.8-1s-1.9-.1-1.6.2zm25.3.4c-.2.4 1.2.7 3 .7 1.9 0 3.2-.3 2.9-.5-.7-.8-5.4-.9-5.9-.2z"/><use xlink:href="#L" x="-40" y="52"/><path d="M515.3 314.6c1.6 2 5.2 3 4.1 1.2-.4-.5-.9-.7-1.2-.4s-1.5-.2-2.6-1.1c-2.1-1.8-2.1-1.8-.3.3z"/><use xlink:href="#V" x="-49" y="39"/><use xlink:href="#d" x="-48" y="24"/><use xlink:href="#W" x="-47" y="35"/><use xlink:href="#U" x="-40" y="40"/><path d="M477.5 315.9c.3.3 1.7.6 3.1.7 1.3 0 2.2-.2 1.9-.5s-1.7-.6-3.1-.7c-1.3 0-2.2.2-1.9.5z"/><use xlink:href="#V" x="-32" y="40"/><use xlink:href="#n"/><use xlink:href="#V" x="-30" y="42"/><use xlink:href="#W" x="-27" y="39"/><use xlink:href="#o"/><use xlink:href="#M" x="-66" y="58"/><use xlink:href="#F" x="-84" y="96"/><use xlink:href="#V" x="-28" y="44"/><path d="M508 322.5c-.7.8-1.6 1.3-2 1-.5-.3-1.1-.2-1.4.3-1 1.7 2.4.8 4.1-1 .9-1 1.4-1.8 1.1-1.8s-1.1.7-1.8 1.5z"/><use xlink:href="#p"/><use xlink:href="#g" x="-44" y="24"/><use xlink:href="#c" y="32"/><use xlink:href="#q"/><use xlink:href="#V" x="-55" y="49"/><use xlink:href="#l" x="-12" y="16"/><use xlink:href="#r"/><use xlink:href="#s"/><use xlink:href="#j" x="25" y="22"/><path d="M475.5 331.7c.1 1.6-.5 3.7-1.4 4.8-1.6 2-1.6 2 .5.2 1.9-1.6 2.7-5.8 1.3-7.2-.3-.3-.5.7-.4 2.2z"/><use xlink:href="#t"/><use xlink:href="#u"/><path d="M499.5 329.8c.3.3-.1 1.2-.7 2.1-.8 1-.4.9 1-.3 2.6-2.3 2.6-2.3.7-2.3-.8 0-1.3.3-1 .5z"/><use xlink:href="#k" x="-20" y="24"/><use xlink:href="#v"/><use xlink:href="#E" x="-88" y="112"/><use xlink:href="#w"/><use xlink:href="#s" x="-34" y="7"/><use xlink:href="#W" x="-38" y="54"/><use xlink:href="#x"/><use xlink:href="#J" x="-60" y="80"/><use xlink:href="#y"/><path d="M491.3 339.3c-.1 1.1-.1 1.8 0 1.6.2-.2.8-1.1 1.5-2 .9-1.2.9-1.6-.1-1.6-.7 0-1.4.9-1.4 2zm6.2-.3c-.4.6-1 .8-1.5.5-.4-.3-1.4.3-2.1 1.3-1.2 1.5-1.2 1.6.2.5.9-.7 1.8-1.1 2.1-.8s1.1-.1 1.8-1c.7-.8 1-1.5.7-1.5s-.9.5-1.2 1zm-24 1c-.2.3 1.3.6 3.3.5s4.4.3 5.2.9c1.2.8 1.3.8.2-.4-1.2-1.4-8-2.2-8.7-1zm26.2.8c-1.5 1.6-1.5 1.9-.2 1.9.8 0 1.3-.3 1-.5-.3-.3 0-1.1.6-1.9 1.7-2 .5-1.6-1.4.5z"/><use xlink:href="#R" x="-47" y="73"/><use xlink:href="#j" x="-25" y="38"/><use xlink:href="#z"/><use xlink:href="#t" x="16" y="14"/><use xlink:href="#W" x="-53" y="65"/><use xlink:href="#AA"/><use xlink:href="#AB"/><use xlink:href="#s" x="-26" y="20"/><use xlink:href="#d" x="-48" y="56"/><use xlink:href="#W" x="-69" y="69"/><use xlink:href="#J" x="-72" y="96"/><use xlink:href="#K" x="-50" y="94"/><use xlink:href="#j" x="-13" y="46"/><use xlink:href="#W" x="-65" y="73"/><use xlink:href="#q" x="-60" y="30"/><use xlink:href="#e" x="-52" y="56"/><use xlink:href="#AA" x="-22" y="8"/><use xlink:href="#J" x="-84" y="100"/><use xlink:href="#c" x="-24" y="64"/><use xlink:href="#j" x="-52" y="50"/><use xlink:href="#y" x="-6" y="18"/><use xlink:href="#o" x="-28" y="36"/><use xlink:href="#G" x="-126" y="122"/><path d="M484 356c-1.2.7-1 .9.7.7 1.2 0 1.9-.5 1.7-.9-.6-1-.6-1-2.4.2z"/><use xlink:href="#K" x="-70" y="102"/><use xlink:href="#D" x="-110" y="146"/><use xlink:href="#n" x="-48" y="42"/><use xlink:href="#AC"/><use xlink:href="#p" x="-12" y="37"/><use xlink:href="#W" x="-76" y="80"/><use xlink:href="#AB" x="10" y="14"/><use xlink:href="#m" x="-88" y="51"/><use xlink:href="#AA" x="-18" y="16"/><use xlink:href="#s" x="-72" y="37"/><use xlink:href="#W" x="-86" y="84"/><use xlink:href="#j" x="-19" y="58"/><use xlink:href="#AD"/><use xlink:href="#AE"/><use xlink:href="#G" x="-118" y="132"/><use xlink:href="#P" x="-120" y="102"/><use xlink:href="#m" x="-84" y="59"/><use xlink:href="#o" x="-34" y="50"/><use xlink:href="#m" x="-88" y="61"/><use xlink:href="#W" x="-78" y="92"/><use xlink:href="#AA" x="-50" y="26"/><use xlink:href="#L" x="-108" y="114"/><use xlink:href="#u" x="-24" y="46"/><use xlink:href="#B" x="-192" y="260"/><use xlink:href="#L" x="-142" y="118"/><use xlink:href="#y" x="6" y="42"/><use xlink:href="#AF"/><use xlink:href="#AG"/><use xlink:href="#N" x="-124" y="120"/><use xlink:href="#L" x="-128" y="122"/><use xlink:href="#l" x="-50" y="74"/><use xlink:href="#AC" x="22" y="26"/><use xlink:href="#o" x="-14" y="74"/><use xlink:href="#N" x="-156" y="132"/><use xlink:href="#m" x="-60" y="87"/><use xlink:href="#F" x="-206" y="180"/><path d="M566.2 411.5c1.5 1.6 2 1.7 3 .6 1.1-1.1 1-1.3 0-.7-.7.4-2.1.2-3-.5-1.5-1.2-1.5-1.1 0 .6z"/><use xlink:href="#G" x="-116" y="178"/><use xlink:href="#AG" x="66" y="30"/><use xlink:href="#k" x="41" y="104"/><use xlink:href="#S" x="6" y="138"/><use xlink:href="#K" x="19" y="155"/><use xlink:href="#P" x="-171" y="148"/><use xlink:href="#u" x="20" y="84"/><use xlink:href="#AH"/><use xlink:href="#u" x="92" y="84"/><use xlink:href="#AA" x="38" y="68"/><use xlink:href="#Q" x="-18" y="146"/><use xlink:href="#F" x="-214" y="192"/><use xlink:href="#G" x="-56" y="182"/><path d="M543.6 415.9c.2.2-.2 1.1-.8 2-1.2 1.5-1.1 1.5.7 0 1.1-.9 3.6-1.5 5.8-1.4 2 .1 3.7-.2 3.7-.5 0-.4-2.2-.6-4.9-.6-2.7.1-4.8.3-4.5.5zm-20.2 3.6c0 1.9.3 3.2.5 2.9.8-.7.9-5.4.2-5.9-.4-.2-.7 1.2-.7 3z"/><use xlink:href="#P" x="-175" y="152"/><use xlink:href="#AC" x="46" y="58"/><use xlink:href="#k" x="7" y="110"/><use xlink:href="#AE" x="90" y="52"/><use xlink:href="#AI"/><path d="M571.2 418.9l1.5 2c.1.2.1-.5 0-1.6 0-1.1-.7-2-1.4-2-1 0-1 .4-.1 1.6z"/><use xlink:href="#c" x="24" y="128"/><use xlink:href="#X" x="24" y="136"/><use xlink:href="#AJ"/><use xlink:href="#C" x="-254" y="212"/><use xlink:href="#j" x="-131" y="114"/><use xlink:href="#N" x="-190" y="158"/><use xlink:href="#P" x="-163" y="156"/><use xlink:href="#AC" x="-60" y="62"/><use xlink:href="#R" x="-23" y="153"/><use xlink:href="#W" x="-14" y="142"/><use xlink:href="#AK"/><use xlink:href="#P" x="16" y="156"/><use xlink:href="#w" x="92" y="88"/><path d="M539.5 422.9c-.3.6-1.4.8-2.5.6-1-.2-2.5.4-3.2 1.3-1.1 1.5-1.1 1.5.2.6.8-.6 2.3-1 3.2-.9.9.2 2.2-.3 2.9-1.1.6-.8.9-1.4.6-1.4s-.8.4-1.2.9z"/><use xlink:href="#s" x="64" y="96"/><use xlink:href="#k" x="8" y="116"/><path d="M561.9 424.7c-1.3 1.6-1.2 1.7.4.4 1.4-1.1 2-1.1 3.5 0 1.5 1.3 1.6 1.2.3-.4-.7-.9-1.7-1.7-2.1-1.7s-1.4.8-2.1 1.7z"/><use xlink:href="#p" x="-110" y="103"/><use xlink:href="#W" x="10" y="146"/><use xlink:href="#V" x="-23" y="151"/><use xlink:href="#N" x="-28" y="164"/><use xlink:href="#AL"/><use xlink:href="#W" x="-3" y="147"/><use xlink:href="#Y" x="16" y="144"/><use xlink:href="#W" x="-194" y="148"/><use xlink:href="#s" x="-136" y="101"/><use xlink:href="#k" x="35" y="120"/><use xlink:href="#E" x="-32" y="208"/><use xlink:href="#k" x="-117" y="122"/><use xlink:href="#F" x="-40" y="206"/><path d="M556 430.5c-.7.8-1.6 1.2-2.1.9s-.9 0-.9.5c0 1.7 1.5 1.3 3.5-.9 1-1.1 1.6-2 1.3-2s-1.1.7-1.8 1.5z"/><use xlink:href="#N" x="8" y="167"/><use xlink:href="#G" x="-22" y="196"/><use xlink:href="#p" x="60" y="108"/><path d="M547.4 434.9c0 2.2.4 3.7.7 3.5.7-.4.4-6.2-.3-7-.3-.2-.5 1.3-.4 3.5z"/><use xlink:href="#m" x="-144" y="123"/><use xlink:href="#AG" x="95" y="52"/><use xlink:href="#K" x="-196" y="178"/><use xlink:href="#m" x="-16" y="125"/><path d="M525.6 435.8c-.3.4.4.9 1.5.9 2.3.2 2.5-.3.4-1-.8-.4-1.6-.3-1.9.1z"/><use xlink:href="#j" x="47" y="130"/><use xlink:href="#n" x="68" y="118"/><use xlink:href="#AC" x="-56" y="78"/><use xlink:href="#T" x="-4" y="164"/><use xlink:href="#n" x="-144" y="122"/><use xlink:href="#k" x="-35" y="132"/><path d="M539.3 441c.1 2.1 1 1.8 1.3-.5.1-.8-.2-1.5-.6-1.5-.5 0-.8.9-.7 2z"/><use xlink:href="#N" x="-20" y="178"/><use xlink:href="#AM"/><use xlink:href="#o" x="-110" y="122"/><use xlink:href="#P" x="-163" y="176"/><use xlink:href="#s" x="-122" y="115"/><use xlink:href="#AA" x="-106" y="96"/><use xlink:href="#i" x="-150" y="140"/><use xlink:href="#AA" x="18" y="96"/><use xlink:href="#i" x="10" y="140"/><use xlink:href="#AN"/><use xlink:href="#y" x="66" y="106"/><use xlink:href="#M" x="-14" y="182"/><use xlink:href="#u" x="-152" y="116"/><use xlink:href="#o" x="-102" y="126"/><use xlink:href="#AG" x="54" y="64"/><use xlink:href="#D" x="-62" y="234"/><use xlink:href="#B" x="-330" y="332"/><use xlink:href="#K" x="-205" y="191"/><use xlink:href="#B" x="-318" y="332"/><use xlink:href="#j" x="-132" y="142"/><use xlink:href="#k" x="-121" y="140"/><use xlink:href="#k" x="-99" y="140"/><use xlink:href="#K" x="-131" y="191"/><use xlink:href="#j" x="52" y="142"/><use xlink:href="#N" x="-200" y="186"/><use xlink:href="#AM" x="16" y="8"/><use xlink:href="#j" x="10" y="144"/><use xlink:href="#AC" x="70" y="90"/><use xlink:href="#Y" x="-216" y="168"/><use xlink:href="#AA" x="-104" y="104"/><use xlink:href="#W" x="-177" y="171"/><use xlink:href="#h" x="-200" y="152"/><path d="M339 452c0 .5.9.8 2 .7 2.1-.1 1.8-1-.5-1.3-.8-.1-1.5.2-1.5.6z"/><use xlink:href="#p" x="-120" y="129"/><use xlink:href="#s" x="-124" y="125"/><use xlink:href="#B" x="-264" y="336"/><use xlink:href="#o" x="26" y="132"/><use xlink:href="#F" x="-272" y="230"/><use xlink:href="#AK" x="-220" y="32"/><use xlink:href="#p" x="-148" y="131"/><use xlink:href="#AG" x="-97" y="72"/><use xlink:href="#N" x="-204" y="192"/><use xlink:href="#p" x="30" y="134"/><path d="M307.9 457.2c-.4 1.3-.4 6.6 0 6.2.6-.6 1-6.4.5-6.4-.2 0-.4.1-.5.2zm3 1c1.1 1.5 1.1 2.1 0 3.5-1.2 1.7-1.2 1.7.6 0 1.9-1.7 1.9-1.7 0-3.5-1.8-1.6-1.8-1.6-.6 0z"/><use xlink:href="#R" x="-223" y="189"/><use xlink:href="#e" x="-192" y="160"/><use xlink:href="#u" x="-152" y="128"/><use xlink:href="#o" x="-80" y="138"/><use xlink:href="#J" x="-220" y="204"/><use xlink:href="#V" x="-189" y="183"/><use xlink:href="#W" x="-216" y="180"/><use xlink:href="#K" x="-205" y="203"/><use xlink:href="#AO"/><use xlink:href="#w" x="-108" y="128"/><use xlink:href="#AP"/><use xlink:href="#y" x="46" y="124"/><path d="M505.9 461.2c-.4 1.2-.5 5.7 0 5.3.6-.6 1-5.5.4-5.5a.76.76 0 0 0-.4.2z"/><use xlink:href="#j" x="27" y="156"/><use xlink:href="#N" x="-34" y="199"/><use xlink:href="#i" x="-196" y="160"/><use xlink:href="#b" x="-216" y="176"/><path d="M333.3 463.4c0 1.4 5 1.7 6.3.4.4-.4-.4-.5-1.6-.3-1.3.3-2.9 0-3.5-.5-.8-.7-1.2-.5-1.2.4z"/><use xlink:href="#D" x="-252" y="250"/><use xlink:href="#W" x="-240" y="184"/><path d="M347.6 463.9c-.3.4.6.7 1.9.7 1.4 0 2.2-.2 1.9-.5-.8-.8-3.4-1-3.8-.2z"/><use xlink:href="#AM" x="24" y="22"/><use xlink:href="#m" x="-124" y="153"/><path d="M398 464c.8.5 2 1 2.5 1 .6 0 .3-.5-.5-1s-1.9-1-2.5-1c-.5 0-.3.5.5 1z"/><use xlink:href="#F" x="-84" y="240"/><use xlink:href="#AQ"/><use xlink:href="#AR"/><use xlink:href="#AG" x="66" y="84"/><path d="M299.4 468.4c.1 1.4.4 2.8.7 3.1s.5-.6.5-1.9c-.1-1.4-.4-2.8-.7-3.1s-.5.6-.5 1.9z"/><use xlink:href="#Q" x="-210" y="198"/><path d="M334.3 467.8c1 1 1.5 2.1 1.2 2.4-.3.2.2.5 1 .5 1.2 0 1-.6-.7-2.4-2.5-2.7-3.9-3.2-1.5-.5z"/><use xlink:href="#W" x="-199" y="187"/><use xlink:href="#AS"/><use xlink:href="#h" x="-224" y="168"/><path d="M330.9 468.3c.6.8.9 1.6.6 1.9-.3.2.2.5 1 .5 1.3 0 1.3-.3-.2-1.9-1.9-2.1-3.1-2.5-1.4-.5zm7.4-.2c.9.6 1.5 1.4 1.2 1.9s-.1 1.1.4 1.4c.5.4.8 0 .7-.6-.3-2.1-1.6-3.8-2.9-3.8-.7 0-.4.5.6 1.1z"/><use xlink:href="#K" x="-193" y="211"/><use xlink:href="#K" x="-175" y="211"/><use xlink:href="#AL" x="-226" y="42"/><use xlink:href="#N" x="-64" y="206"/><use xlink:href="#K" x="-219" y="213"/><use xlink:href="#L" x="-216" y="208"/><use xlink:href="#AG" x="-105" y="88"/><use xlink:href="#P" x="-139" y="204"/><use xlink:href="#k" x="-81" y="162"/><path d="M508 474c-1.2.7-1 .9.7.7 1.2 0 1.9-.5 1.7-.9-.6-1-.6-1-2.4.2z"/><use xlink:href="#W" x="-65" y="195"/><use xlink:href="#B" x="-156" y="366"/><use xlink:href="#F" x="-86" y="260"/><use xlink:href="#j" x="-56" y="182"/><use xlink:href="#j" x="-12" y="182"/><use xlink:href="#k" x="-70" y="182"/><use xlink:href="#o" x="-56" y="170"/><use xlink:href="#j" x="-11" y="186"/><use xlink:href="#B" x="-228" y="378"/><use xlink:href="#W" x="-129" y="215"/><use xlink:href="#l" x="-86" y="186"/><use xlink:href="#o" x="-46" y="180"/><use xlink:href="#s" x="-72" y="177"/><use xlink:href="#N" x="-152" y="243"/><use xlink:href="#AC" x="-30" y="146"/><use xlink:href="#o" x="-50" y="190"/><use xlink:href="#AE" x="12" y="144"/><use xlink:href="#y" x="-2" y="172"/><use xlink:href="#a" x="-118" y="228"/><use xlink:href="#C" x="-198" y="304"/><use xlink:href="#P" x="-91" y="248"/><use xlink:href="#o" x="-12" y="194"/><use xlink:href="#W" x="-129" y="235"/><path d="M393.6 516.1c.4.8 3 .6 3.8-.2.3-.3-.5-.5-1.9-.5-1.3 0-2.2.3-1.9.7z"/><use xlink:href="#k" x="-55" y="208"/><use xlink:href="#v" x="-46" y="184"/><use xlink:href="#R" x="-159" y="249"/><use xlink:href="#p" x="-68" y="195"/><use xlink:href="#N" x="-160" y="257"/><use xlink:href="#V" x="-139" y="245"/><use xlink:href="#p" x="-76" y="198"/><use xlink:href="#n" x="-38" y="204"/><use xlink:href="#AG" x="-4" y="140"/><path d="M395.4 526.7c2.1 2.5 3.6 3 3.6 1.1 0-.6-.3-.8-.7-.5-.3.4-1.6-.1-2.7-1-2.1-1.8-2.1-1.8-.2.4z"/><use xlink:href="#o" x="-42" y="206"/><use xlink:href="#D" x="-204" y="314"/><use xlink:href="#AA" x="-48" y="180"/><use xlink:href="#F" x="-200" y="304"/><use xlink:href="#AQ" x="92" y="62"/><use xlink:href="#P" x="-130" y="262"/><use xlink:href="#q" x="-96" y="208"/><use xlink:href="#K" x="-123" y="275"/><use xlink:href="#i" x="-124" y="232"/><use xlink:href="#k" x="-74" y="228"/><use xlink:href="#C" x="-192" y="328"/><use xlink:href="#u" x="-96" y="208"/><use xlink:href="#H" x="-178" y="298"/><use xlink:href="#AC" x="-10" y="178"/><path d="M377.3 540.7c0 1 .4 1 1.6.1l2-1.5c.2-.1-.5-.1-1.6 0-1.1 0-2 .7-2 1.4z"/><use xlink:href="#v" x="-96" y="208"/><use xlink:href="#AC" x="-44" y="180"/><use xlink:href="#p" x="-72" y="217"/><use xlink:href="#K" x="-163" y="285"/><use xlink:href="#k" x="-99" y="234"/><use xlink:href="#AF" x="-64" y="162"/><path d="M371.9 543.2c1.5 2.1 3.1 2.3 3.1.6 0-.6-.3-.8-.7-.5-.3.4-1.3.1-2.2-.6-1.4-1.1-1.4-1-.2.5z"/><use xlink:href="#j" x="-82" y="238"/><use xlink:href="#W" x="-174" y="266"/><path d="M387.3 547.1c-.2 2.3.3 2.5 1 .4.4-.8.3-1.6-.1-1.9s-.9.4-.9 1.5zm8-.1c-.1 1.1.2 2 .7 2 .4 0 .7-.7.6-1.5-.3-2.3-1.2-2.6-1.3-.5zm3.7-.5c.5.7.8 1.4.5 1.7-.3.2.2.5 1 .5 1 0 1.2-.4.5-1.2-.5-.7-.8-1.4-.5-1.7.3-.2-.2-.5-1-.5-1 0-1.2.4-.5 1.2z"/><use xlink:href="#T" x="-156" y="272"/><path d="M367.3 549c.5 2.9 1.3 3.3 1.3.5 0-1.4-.4-2.5-.8-2.5s-.7.9-.5 2z"/><use xlink:href="#K" x="-165" y="291"/><use xlink:href="#AA" x="-70" y="202"/><use xlink:href="#p" x="-60" y="226"/><use xlink:href="#U" x="-154" y="276"/><use xlink:href="#AL" x="-128" y="124"/><path d="M375.5 551.8c.3.3-.1 1.2-.7 2.1-1.1 1.4-1 1.4.7 0 1.1-.9 2.8-1.5 3.8-1.4 1.1.2 1.6.1 1.2-.3-.3-.3-1.7-.7-3.1-.8-1.3 0-2.2.1-1.9.4z"/><use xlink:href="#N" x="-136" y="290"/><path d="M363.1 555.3c.2.2 1.1.8 2 1.5 1.2.9 1.6.9 1.6-.1 0-.7-.9-1.4-2-1.4-1.1-.1-1.8-.1-1.6 0z"/><use xlink:href="#W" x="-156" y="276"/><use xlink:href="#k" x="-89" y="248"/><use xlink:href="#P" x="-137" y="290"/><use xlink:href="#j" x="-83" y="250"/><use xlink:href="#t" x="-116" y="228"/><use xlink:href="#W" x="-170" y="278"/><use xlink:href="#AK" x="-160" y="136"/><use xlink:href="#G" x="-182" y="324"/><use xlink:href="#F" x="-172" y="334"/><use xlink:href="#D" x="-188" y="346"/><use xlink:href="#z" x="-112" y="216"/><use xlink:href="#C" x="-228" y="352"/><use xlink:href="#C" x="-216" y="352"/><use xlink:href="#d" x="-176" y="272"/><use xlink:href="#AS" x="16" y="96"/><path d="M391.9 563.2c-.6 2-.6 3.9 0 4.2.4.3.7-.6.7-2 0-2-.4-3.2-.7-2.2z"/><use xlink:href="#s" x="-148" y="240"/><use xlink:href="#g" x="-164" y="268"/><use xlink:href="#W" x="-175" y="287"/><use xlink:href="#m" x="-140" y="256"/><use xlink:href="#W" x="-192" y="288"/><path d="M384 568.4c-.5.5-1 1.5-1 2 0 .6.5.3 1.1-.7.6-.9 1.4-1.5 1.9-1.2s1.1.2 1.4-.3c.7-1.2-2.1-1.1-3.4.2z"/><use xlink:href="#D" x="-246" y="357"/><use xlink:href="#AF" x="-96" y="190"/><use xlink:href="#R" x="-155" y="301"/><path d="M351.9 571.2c-.7 2.3-.4 3.5.7 3.5.9 0 1.1-.4.4-1.2-.5-.7-.7-1.5-.3-1.8.3-.4.3-.7 0-.7-.4 0-.7.1-.8.2zm4.2 1.2c-.9 1.1-.9 1.6.1 2.2.7.4 1 .4.6-.1-.4-.4-.3-1.4.3-2.2.6-.7.9-1.3.6-1.3-.2 0-1 .6-1.6 1.4z"/><use xlink:href="#M" x="-174" y="310"/><use xlink:href="#k" x="-92" y="264"/><use xlink:href="#k" x="-87" y="264"/><use xlink:href="#V" x="-155" y="297"/><use xlink:href="#AF" x="-116" y="194"/><use xlink:href="#s" x="-130" y="248"/><use xlink:href="#j" x="-106" y="270"/><path d="M383.9 576.5c-.1.3-.2.8-.3 1.2-.1.5-.5 1.5-1 2.3-.7 1.2-.6 1.3.4.3 1.3-1.2 2.3-4.3 1.4-4.3-.2 0-.5.2-.5.5zm-36.6 2.8c-.1 1.1-.1 1.8 0 1.6.2-.2.8-1.1 1.5-2 .9-1.2.9-1.6-.1-1.6-.7 0-1.4.9-1.4 2zm12.2-1.5c.3.3-.3 1.5-1.2 2.6-1.4 1.5-1.4 1.8-.2.8.9-.6 1.8-1.1 2-.9.2.1.3 0 .2-.2-.2-.2.2-.9.7-1.6.7-.8.5-1.2-.5-1.2-.8 0-1.3.3-1 .5zm4 0c.3.3-.1 1.2-.7 2.1-.8 1-.4.9 1-.3 2.6-2.3 2.6-2.3.7-2.3-.8 0-1.3.3-1 .5z"/><use xlink:href="#W" x="-191" y="299"/><use xlink:href="#W" x="-175" y="299"/><use xlink:href="#K" x="-193" y="323"/><use xlink:href="#K" x="-169" y="323"/><use xlink:href="#AA" x="-94" y="234"/><use xlink:href="#k" x="-139" y="274"/><path d="M361.5 583c-.4.6-1.1.8-1.6.5-.5-.4-.9-.1-.9.4 0 1.6 1.6 1.3 3-.4.7-.8 1-1.5.7-1.5s-.9.5-1.2 1z"/><use xlink:href="#W" x="-179" y="303"/><use xlink:href="#N" x="-178" y="321"/><use xlink:href="#W" x="-181" y="305"/><path d="M337.4 588.2c-.4.7-.3 1 .1.5.5-.4 1.8.1 2.9 1 2.1 1.8 2.1 1.8.2-.5-2.2-2.6-2.3-2.6-3.2-1zm15.2 0c.4.5.9.7 1.2.4s1.5.2 2.6 1.1c2.1 1.8 2.1 1.8.3-.3-1.6-2-5.2-3-4.1-1.2z"/><use xlink:href="#AC" x="-68" y="228"/><use xlink:href="#j" x="-109" y="282"/><use xlink:href="#K" x="-180" y="332"/><use xlink:href="#J" x="-224" y="336"/><use xlink:href="#AA" x="-116" y="244"/><use xlink:href="#D" x="-222" y="378"/><use xlink:href="#M" x="-194" y="330"/><use xlink:href="#K" x="-200" y="336"/><use xlink:href="#AA" x="-110" y="246"/><path d="M355.5 593c-.3.5-.3 1 .1 1s-.1 1-1.2 2.2c-1.9 2.3-1.9 2.3.2.5 1.1-.9 2.1-2.4 2.1-3.2 0-1.8-.3-1.9-1.2-.5z"/><use xlink:href="#c" x="-176" y="304"/><use xlink:href="#AJ" x="-212" y="176"/><use xlink:href="#W" x="-195" y="315"/><path d="M347.4 596.9c.4.5 0 1.1-.6 1.4-.7.3-.3.4.9.4 1.7-.1 1.9-.4 1.1-1.4-1.2-1.5-2.2-1.8-1.4-.4z"/><use xlink:href="#AH" x="-200" y="184"/><use xlink:href="#m" x="-156" y="288"/><path d="M346.1 603.5c.9 1.1 1.5 2.8 1.4 3.8-.2 1.1-.1 1.6.2 1.3.4-.3 1.3 0 2.2.6 1.2 1 1.2.7-.2-.8-.9-1.1-1.5-2.3-1.2-2.6s-.5-1.3-1.7-2.4c-2.3-1.9-2.3-1.9-.7.1z"/><use xlink:href="#W" x="-191" y="323"/><use xlink:href="#AT"/><use xlink:href="#AT" x="32"/><use xlink:href="#W" x="-201" y="325"/><use xlink:href="#K" x="-215" y="349"/><use xlink:href="#AG" x="-97" y="224"/><use xlink:href="#D" x="-262" y="394"/><path d="M341.3 607.5c0 .8.3 1.3.5 1 .3-.3 1.5.3 2.6 1.2 1.5 1.3 1.4 1-.3-1-2.9-3.2-2.8-3.1-2.8-1.2z"/><use xlink:href="#z" x="-148" y="264"/><use xlink:href="#AR" x="20" y="144"/><use xlink:href="#K" x="-206" y="354"/><use xlink:href="#W" x="-203" y="331"/><path d="M347.3 611.4c0 1.5 2.2 1.5 3.4 0 .4-.5.4-.6-.1-.2s-1.4.3-2.1-.2c-.8-.7-1.2-.5-1.2.4zm-7.9 1.5c.4.5 0 1.1-.6 1.4-.7.3-.3.4.9.4 1.7-.1 1.9-.4 1.1-1.4-1.2-1.5-2.2-1.8-1.4-.4z"/><use xlink:href="#AN" x="-184" y="170"/><path d="M322.6 616.2c1 1.4 2.1 2.4 2.3 2.2.3-.3-.6-1.5-1.8-2.7l-2.4-2.2 1.9 2.7z"/><use xlink:href="#D" x="-262" y="402"/><use xlink:href="#p" x="-130" y="292"/><use xlink:href="#N" x="-212" y="355"/><path d="M321.5 619c-.4.6-1.1.8-1.6.5-.5-.4-.9-.1-.9.4 0 1.6 1.6 1.3 3-.4.7-.8 1-1.5.7-1.5s-.9.5-1.2 1z"/><use xlink:href="#W" x="-211" y="339"/><use xlink:href="#Q" x="-208" y="352"/><path d="M331.2 621.3c-.8 1-.6 1.3 1.1 1.4 1.2 0 1.6-.1.9-.4-.6-.3-1-.9-.6-1.4.8-1.4-.2-1.1-1.4.4zm-14.9.9c-1.3 1.6-1.3 4.8 0 4.8.5 0 .6-.7.3-1.6-.4-.9-.1-2.3.5-3 .6-.8.9-1.4.6-1.4-.2 0-.9.6-1.4 1.2z"/><use xlink:href="#F" x="-248" y="398"/><use xlink:href="#K" x="-216" y="366"/><path d="M328.4 626.1c-.3.6.2 1.8 1.2 2.7 1.7 1.6 1.7 1.6.5 0-.7-.9-1-2.2-.6-2.8.3-.5.4-1 .1-1s-.8.5-1.2 1.1z"/><use xlink:href="#S" x="-200" y="352"/><path d="M314.7 629.3c-.3.7.3 1.3 1.4 1.3 1.3 0 1.5-.3.7-1.3-.6-.7-1.2-1.3-1.3-1.3-.2 0-.5.6-.8 1.3z"/><use xlink:href="#V" x="-225" y="355"/><path d="M320.6 630.9c-1.9.7-1.9.8 0 1.3 1.3.3 2.1 0 2.1-.8s-.1-1.4-.1-1.3c-.1 0-1 .4-2 .8z"/><use xlink:href="#L" x="-224" y="372"/><use xlink:href="#F" x="-260" y="410"/><use xlink:href="#I" x="-256" y="381"/><use xlink:href="#H" x="-274" y="396"/><use xlink:href="#I" x="-256" y="384"/><use xlink:href="#m" x="-218" y="329"/><path d="M305.4 640.2c-.4.5-.3 1.2 0 1.5.3.4.6.1.6-.6s.5-.9 1-.6c.6.4.7 1.2.4 1.8-.4.7-.3.8.1.4 1.5-1.3 1.4-3.4-.2-3.4-.7 0-1.6.4-1.9.9z"/><use xlink:href="#B" x="-364" y="526"/><use xlink:href="#j" x="-175" y="338"/><use xlink:href="#k" x="-191" y="338"/><use xlink:href="#H" x="-274" y="406"/><use xlink:href="#I" x="-269" y="396"/><path d="M300.8 650.8c-1.7.7-1.7.8 0 1.8 1.5 1 1.8.8 1.8-.7 0-1.1 0-1.9-.1-1.8 0 0-.8.4-1.7.7zm-2.1 3.8c.4 1 .2 1.5-.4 1.1-.5-.3-1 0-1 .7 0 .8.6 1.2 1.4.9 1.5-.6 1.7-2.9.3-3.8-.6-.4-.7.1-.3 1.1z"/><use xlink:href="#AM" x="-40" y="214"/><path d="M287 657.7c.5.2.8.9.5 1.3-.3.5-.1 1.1.4 1.4.5.4.8-.2.7-1.1-.2-.9-.8-1.8-1.5-1.9-.6-.1-.7 0-.1.3z"/><use xlink:href="#AB" x="-190" y="318"/><use xlink:href="#F" x="-297" y="442"/><path d="M276.2 667.9c-1.1.6-.9.9.6 1.3s1.9.2 1.5-.8c-.6-1.6-.4-1.6-2.1-.5z"/><use xlink:href="#C" x="-331" y="465"/><use xlink:href="#n" x="172" y="-186"/><use xlink:href="#v" x="158" y="-196"/><use xlink:href="#y" x="174" y="-200"/><use xlink:href="#m" x="116" y="-171"/><use xlink:href="#o" x="148" y="-178"/><use xlink:href="#w" x="160" y="-190"/><use xlink:href="#B" x="-48" y="30"/><path d="M616 146c-1.2.7-1 .9.7.7 1.2 0 1.9-.5 1.7-.9-.6-1-.6-1-2.4.2z"/><use xlink:href="#p" x="152" y="-175"/><use xlink:href="#p" x="138" y="-173"/><use xlink:href="#D" x="80" y="-62"/><use xlink:href="#o" x="108" y="-168"/><use xlink:href="#p" x="148" y="-171"/><use xlink:href="#j" x="140" y="-154"/><use xlink:href="#P" x="61" y="-110"/><use xlink:href="#j" x="201" y="-150"/><use xlink:href="#AE" x="180" y="-208"/><use xlink:href="#AC" x="166" y="-202"/><use xlink:href="#y" x="222" y="-180"/><use xlink:href="#V" x="83" y="-117"/><use xlink:href="#AG" x="220" y="-220"/><use xlink:href="#D" x="14" y="-50"/><use xlink:href="#k" x="208" y="-144"/><use xlink:href="#AG" x="140" y="-216"/><use xlink:href="#n" x="122" y="-152"/><use xlink:href="#AC" x="236" y="-194"/><use xlink:href="#p" x="128" y="-156"/><use xlink:href="#N" x="60" y="-96"/><path d="M599.4 169.2l-1.9 2.3 2.3-1.9c2.1-1.8 2.7-2.6 1.9-2.6-.2 0-1.2 1-2.3 2.2z"/><use xlink:href="#p" x="110" y="-154"/><use xlink:href="#G" x="22" y="-64"/><use xlink:href="#l" x="104" y="-140"/><use xlink:href="#P" x="133" y="-96"/><use xlink:href="#j" x="187" y="-136"/><use xlink:href="#N" x="52" y="-92"/><use xlink:href="#k" x="117" y="-136"/><use xlink:href="#n" x="188" y="-146"/><use xlink:href="#F" x="80" y="-52"/><use xlink:href="#D" x="12" y="-40"/><use xlink:href="#D" x="6" y="-38"/><use xlink:href="#F" y="-48"/><use xlink:href="#R" x="109" y="-93"/><use xlink:href="#N" x="114" y="-86"/><use xlink:href="#y" x="146" y="-160"/><use xlink:href="#n" x="190" y="-140"/><use xlink:href="#p" x="126" y="-144"/><use xlink:href="#o" x="104" y="-140"/><use xlink:href="#AM" x="252" y="-262"/><use xlink:href="#p" x="94" y="-142"/><use xlink:href="#l" x="88" y="-128"/><use xlink:href="#AC" x="222" y="-178"/><use xlink:href="#W" x="135" y="-97"/><use xlink:href="#N" x="28" y="-79"/><use xlink:href="#l" x="144" y="-126"/><use xlink:href="#n" x="196" y="-132"/><use xlink:href="#F" y="-36"/><use xlink:href="#o" x="184" y="-132"/><use xlink:href="#r" x="94" y="-136"/><use xlink:href="#V" x="38" y="-84"/><use xlink:href="#p" x="180" y="-131"/><use xlink:href="#y" x="210" y="-146"/><use xlink:href="#j" x="70" y="-112"/><use xlink:href="#AA" x="86" y="-152"/><use xlink:href="#AL" x="112" y="-232"/><use xlink:href="#j" x="77" y="-110"/><use xlink:href="#f" x="36" y="-102"/><use xlink:href="#p" x="172" y="-127"/><use xlink:href="#C" x="50" y="-12"/><use xlink:href="#p" x="186" y="-125"/><use xlink:href="#N" x="24" y="-63"/><use xlink:href="#AC" x="114" y="-158"/><use xlink:href="#n" x="90" y="-116"/><use xlink:href="#j" x="171" y="-104"/><use xlink:href="#k" x="82" y="-104"/><use xlink:href="#R" x="23" y="-65"/><use xlink:href="#F" x="60" y="-20"/><use xlink:href="#R" x="125" y="-65"/><use xlink:href="#o" x="78" y="-114"/><use xlink:href="#AK" x="92" y="-216"/><use xlink:href="#m" x="28" y="-103"/><use xlink:href="#k" x="149" y="-100"/><use xlink:href="#v" x="170" y="-124"/><use xlink:href="#p" x="164" y="-114"/><use xlink:href="#AS" x="276" y="-256"/><use xlink:href="#AC" x="206" y="-146"/><use xlink:href="#N" x="4" y="-48"/><use xlink:href="#AN" x="120" y="-228"/><use xlink:href="#W" x="90" y="-64"/><use xlink:href="#y" x="92" y="-120"/><use xlink:href="#AF" x="164" y="-162"/><use xlink:href="#AC" x="202" y="-142"/><use xlink:href="#N" x="90" y="-42"/><use xlink:href="#L" x="80" y="-38"/><use xlink:href="#N" x="-22" y="-38"/><use xlink:href="#j" x="60" y="-80"/><use xlink:href="#m" x="124" y="-85"/><path d="M616.9 227.6c-1.6 1.9-2 4.2-.9 4.9.5.3.7-.3.5-1.2-.1-1 .4-2.6 1.3-3.6.8-.9 1.3-1.7 1-1.7s-1.2.7-1.9 1.6z"/><use xlink:href="#n" x="32" y="-90"/><use xlink:href="#m" x="4" y="-77"/><use xlink:href="#L" x="68" y="-28"/><use xlink:href="#G" x="-50" y="2"/><use xlink:href="#AC" x="178" y="-124"/><use xlink:href="#s" x="124" y="-91"/><use xlink:href="#AC" x="76" y="-122"/><use xlink:href="#AU"/><use xlink:href="#v" x="138" y="-88"/><use xlink:href="#AG" x="60" y="-136"/><use xlink:href="#n" x="42" y="-72"/><path d="M601.5 246c-.2.3.5.7 1.6.7 1 .1 1.9-.2 1.9-.6 0-.9-2.9-1-3.5-.1z"/><use xlink:href="#k" x="142" y="-62"/><use xlink:href="#k" x="124" y="-60"/><use xlink:href="#p" x="30" y="-74"/><use xlink:href="#n" x="42" y="-68"/><use xlink:href="#s" x="112" y="-77"/><use xlink:href="#N" x="60" y="-12"/><use xlink:href="#P" x="66" y="-14"/><use xlink:href="#n" x="152" y="-66"/><use xlink:href="#G" x="46" y="22"/><use xlink:href="#D" x="-88" y="46"/><use xlink:href="#p" x="140" y="-64"/><use xlink:href="#m" x="-20" y="-51"/><use xlink:href="#AC" x="52" y="-98"/><use xlink:href="#AC" x="166" y="-98"/><use xlink:href="#q" x="120" y="-62"/><use xlink:href="#n" x="116" y="-54"/><use xlink:href="#L" x="44" y="6"/><use xlink:href="#y" x="44" y="-68"/><use xlink:href="#y" x="154" y="-68"/><use xlink:href="#D" y="58"/><use xlink:href="#G" x="-108" y="38"/><use xlink:href="#j" x="-39" y="-30"/><use xlink:href="#y" x="32" y="-62"/><use xlink:href="#s" x="88" y="-51"/><use xlink:href="#i" x="90" y="-24"/><use xlink:href="#p" x="-8" y="-43"/><use xlink:href="#j" x="-14" y="-24"/><use xlink:href="#y" x="136" y="-56"/><use xlink:href="#AA" x="-2" y="-64"/><use xlink:href="#AD" x="-14" y="-80"/><use xlink:href="#V" x="38" y="8"/><use xlink:href="#k" x="103" y="-22"/><use xlink:href="#P" x="41" y="24"/><use xlink:href="#N" x="-116" y="29"/><use xlink:href="#y" x="16" y="-46"/><use xlink:href="#N" x="26" y="30"/><use xlink:href="#k" x="-21" y="-14"/><use xlink:href="#W" x="-90" y="16"/><use xlink:href="#v" x="90" y="-36"/><use xlink:href="#p" x="108" y="-27"/><use xlink:href="#AP" x="214" y="-164"/><use xlink:href="#V" x="82" y="24"/><use xlink:href="#p" x="-28" y="-22"/><use xlink:href="#AC" x="-24" y="-58"/><use xlink:href="#k" x="-30" y="-6"/><use xlink:href="#D" x="-16" y="90"/><use xlink:href="#B" x="-100" y="188"/><use xlink:href="#O" x="-94" y="42"/><use xlink:href="#j" x="87"/><use xlink:href="#B" x="-100" y="192"/><use xlink:href="#n" x="98" y="-10"/><use xlink:href="#p" x="-32" y="-14"/><use xlink:href="#AE" x="144" y="-56"/><use xlink:href="#j" x="73" y="6"/><use xlink:href="#o" x="82" y="-6"/><use xlink:href="#N" x="14" y="55"/><use xlink:href="#E" x="-40" y="102"/><use xlink:href="#E" x="-52" y="106"/><use xlink:href="#AG" x="108" y="-56"/><use xlink:href="#p" x="64" y="7"/><use xlink:href="#j" x="80" y="26"/><use xlink:href="#AG" x="108" y="-48"/><path d="M532.4 335.7c.4.4 1.6.8 2.8 1 2.8.4 1.8-.6-1.2-1.2-1.2-.2-2-.1-1.6.2z"/><use xlink:href="#N" x="6" y="74"/><use xlink:href="#o" x="74" y="18"/><use xlink:href="#R" x="-19" y="77"/><use xlink:href="#n" x="78" y="28"/><use xlink:href="#k" x="70" y="38"/><path d="M557.5 346c-.2.3.5.7 1.6.7 1 .1 1.9-.2 1.9-.6 0-.9-2.9-1-3.5-.1z"/><use xlink:href="#AC" x="106" y="-10"/><use xlink:href="#AC" x="110" y="-10"/><use xlink:href="#i" x="12" y="48"/><use xlink:href="#Z" x="-12" y="68"/><use xlink:href="#AA" x="76" y="4"/><use xlink:href="#C" x="-244" y="144"/><use xlink:href="#R" x="-19" y="85"/><use xlink:href="#m" x="40" y="43"/><path d="M520.3 356.2c-1.1 1.9-1.3 3.9-.1 3.2.5-.3.7-.9.4-1.2s-.1-1.1.5-1.9c.6-.7.9-1.3.6-1.3s-.9.6-1.4 1.2z"/><use xlink:href="#k" x="49" y="48"/><use xlink:href="#y" x="112" y="18"/><use xlink:href="#G" x="30" y="122"/><path d="M516 358.5c-1.1 1.3-1.1 1.8 0 2.8 1 .9 1.1.9.6-.1-.4-.7-.2-1.9.4-2.7.7-.8 1-1.5.7-1.5-.2 0-1 .7-1.7 1.5z"/><use xlink:href="#D" x="-62" y="146"/><use xlink:href="#P" x="-11" y="94"/><use xlink:href="#k" x="54" y="52"/><use xlink:href="#AG" x="116" y="-20"/><use xlink:href="#Z" x="-24" y="80"/><use xlink:href="#AA" x="80" y="16"/><use xlink:href="#AT" x="200" y="-240"/><use xlink:href="#AG" x="103" y="-18"/><use xlink:href="#j" x="92" y="58"/><use xlink:href="#J" x="-48" y="112"/><use xlink:href="#p" x="64" y="44"/><use xlink:href="#N" y="104"/><use xlink:href="#W" x="-28" y="88"/><use xlink:href="#a" x="12" y="84"/><use xlink:href="#G" x="-50" y="134"/><use xlink:href="#B" x="-114" y="252"/><use xlink:href="#j" x="81" y="62"/><use xlink:href="#Y" x="-24" y="88"/><use xlink:href="#J" x="-36" y="116"/><path d="M513.3 372.7c0 1 .4 1 1.6.1l2-1.5c.2-.1-.5-.1-1.6 0-1.1 0-2 .7-2 1.4z"/><use xlink:href="#M" x="-22" y="110"/><use xlink:href="#o" x="70" y="52"/><use xlink:href="#n" x="92" y="54"/><use xlink:href="#m" x="56" y="61"/><use xlink:href="#y" x="128" y="34"/><use xlink:href="#AO" x="180" y="-88"/><use xlink:href="#AH" x="-24" y="-40"/><use xlink:href="#AV"/><use xlink:href="#L" x="-40" y="116"/><use xlink:href="#R" x="-31" y="109"/><use xlink:href="#e" y="80"/><use xlink:href="#G" x="-58" y="144"/><use xlink:href="#AF" x="68" y="-2"/><use xlink:href="#AG" x="132" y="-4"/><use xlink:href="#Y" x="-24" y="96"/><use xlink:href="#c" y="88"/><use xlink:href="#D" x="-40" y="166"/><use xlink:href="#W" x="19" y="99"/><use xlink:href="#K" x="-41" y="123"/><use xlink:href="#W" x="-24" y="100"/><use xlink:href="#n" x="100" y="62"/><use xlink:href="#F" x="-8" y="156"/><use xlink:href="#s" x="30" y="54"/><use xlink:href="#AH" x="-36" y="-32"/><use xlink:href="#V" x="-18" y="106"/><path d="M589.9 381.2c-.4 1.2-.5 5.7 0 5.3.6-.6 1-5.5.4-5.5a.76.76 0 0 0-.4.2zm-82.5 1.6c.4.7.2 2.1-.5 3-1.2 1.5-1.1 1.5.6 0 1.6-1.5 1.7-2 .6-3-1.1-1.1-1.3-1-.7 0z"/><use xlink:href="#AL" y="-44"/><path d="M543.9 384.7c-1.7 2-1.8 2.3-.3 1 1.1-.9 2.3-1.5 2.6-1.2.2.3.5-.2.5-1 0-1.9.1-2-2.8 1.2zm-21.2-.6c.7.9 1.1 1.8.8 2.1s.5 1.3 1.7 2.4c2.3 1.9 2.3 1.9.5-.2-.9-1.1-1.5-2.3-1.2-2.6s-.3-1.1-1.2-1.9c-1.6-1.2-1.7-1.2-.6.2z"/><use xlink:href="#N" x="8" y="122"/><use xlink:href="#W" x="-30" y="106"/><use xlink:href="#AR" x="216" y="-80"/><use xlink:href="#AQ" x="236" y="-80"/><use xlink:href="#AS" x="152" y="-80"/><use xlink:href="#d" y="96"/><use xlink:href="#T" x="12" y="112"/><use xlink:href="#j" x="68" y="82"/><use xlink:href="#k" x="86" y="80"/><use xlink:href="#C" x="-22" y="180"/><use xlink:href="#o" x="122" y="68"/><use xlink:href="#j" x="116" y="82"/><use xlink:href="#W" x="-45" y="109"/><use xlink:href="#V" x="-18" y="114"/><path d="M349 391.5c0 .5.5 1.7 1 2.5s1 1 1 .5c0-.6-.5-1.7-1-2.5s-1-1.1-1-.5z"/><use xlink:href="#o" x="-136" y="76"/><use xlink:href="#B" x="-320" y="286"/><use xlink:href="#k" x="-206" y="100"/><use xlink:href="#R" x="-233" y="143"/><use xlink:href="#j" x="-165" y="106"/><use xlink:href="#G" x="-280" y="182"/><use xlink:href="#m" x="-200" y="105"/><use xlink:href="#P" x="-227" y="156"/><use xlink:href="#AA" x="-182" y="80"/><use xlink:href="#o" x="-166" y="108"/><use xlink:href="#N" x="-258" y="167"/><use xlink:href="#y" x="150" y="92"/><use xlink:href="#p" x="136" y="108"/><use xlink:href="#P" x="61" y="168"/><use xlink:href="#j" x="115" y="128"/><use xlink:href="#F" x="-304" y="212"/><use xlink:href="#P" x="-251" y="172"/><use xlink:href="#P" x="-245" y="172"/><use xlink:href="#p" x="112" y="117"/><use xlink:href="#p" x="-194" y="118"/><use xlink:href="#j" x="106" y="136"/><use xlink:href="#s" x="80" y="117"/><use xlink:href="#N" x="24" y="184"/><use xlink:href="#AL" x="50" y="20"/><use xlink:href="#p" x="-198" y="126"/><use xlink:href="#m" x="68" y="139"/><use xlink:href="#o" x="-208" y="132"/><use xlink:href="#k" x="128" y="144"/><use xlink:href="#i" x="82" y="150"/><use xlink:href="#j" x="95" y="148"/><use xlink:href="#P" x="33" y="196"/><use xlink:href="#w" x="92" y="134"/><use xlink:href="#q" x="64" y="146"/><use xlink:href="#B" x="-88" y="356"/><use xlink:href="#m" x="42" y="162"/><use xlink:href="#p" x="56" y="165"/><use xlink:href="#k" x="84" y="180"/><use xlink:href="#W" x="-223" y="211"/><use xlink:href="#B" x="-360" y="376"/><use xlink:href="#o" x="-148" y="172"/><use xlink:href="#f" x="-178" y="194"/><use xlink:href="#S" x="-154" y="218"/><use xlink:href="#m" x="-232" y="183"/><path d="M355.4 494.8c1.1 1.2 2.1 2 2.4 1.7s1.5.3 2.6 1.2c2.1 1.8 2.1 1.8.2-.5-1.1-1.2-2.1-2-2.4-1.7s-1.5-.3-2.6-1.2c-2.1-1.8-2.1-1.8-.2.5z"/><use xlink:href="#f" x="-168" y="196"/><use xlink:href="#AB" x="-144" y="148"/><use xlink:href="#i" x="-180" y="192"/><use xlink:href="#Z" x="-204" y="212"/><use xlink:href="#AU" x="-248" y="256"/><use xlink:href="#y" x="-186" y="158"/><use xlink:href="#N" x="-234" y="233"/><path d="M343.5 495.8c.3.3 2.5.6 4.8.7 2.3 0 4.9.4 5.7.9 1.2.7 1.3.6.2-.5-.7-.7-3.5-1.4-6.2-1.5-2.8 0-4.8.1-4.5.4z"/><use xlink:href="#j" x="-108" y="190"/><use xlink:href="#C" x="-326" y="290"/><use xlink:href="#s" x="-216" y="171"/><path d="M339.2 498.9l1.5 2c.1.2.1-.5 0-1.6 0-1.1-.7-2-1.4-2-1 0-1 .4-.1 1.6zm7.3 1.1c1 1.1 2 2 2.3 2s-.3-.9-1.3-2-2-2-2.3-2 .3.9 1.3 2z"/><use xlink:href="#W" x="-187" y="219"/><use xlink:href="#U" x="-184" y="224"/><use xlink:href="#c" x="-144" y="208"/><use xlink:href="#K" x="-227" y="243"/><path d="M327.4 501.4c.1 1.4.4 2.8.7 3.1s.5-.6.5-1.9c-.1-1.4-.4-2.8-.7-3.1s-.5.6-.5 1.9zm27.5-1.1c.6.8.9 1.6.6 1.9-.3.2.2.5 1 .5 1.3 0 1.3-.3-.2-1.9-1.9-2.1-3.1-2.5-1.4-.5z"/><use xlink:href="#AI" x="-176" y="84"/><use xlink:href="#AG" x="-97" y="120"/><use xlink:href="#F" x="-224" y="278"/><use xlink:href="#AH" x="-168" y="88"/><use xlink:href="#W" x="-253" y="223"/><use xlink:href="#AL" x="-192" y="76"/><path d="M365.5 503c-.4.6-1.2.7-1.8.4-.7-.4-.9-.4-.5.1.4.4.2 1.5-.4 2.4-1 1.2-.7 1.2.8-.2 1.1-.9 2.3-1.5 2.6-1.2.2.3.5-.2.5-1 0-1.8-.3-1.9-1.2-.5z"/><use xlink:href="#v" x="-182" y="172"/><path d="M345.9 504.7c-1.2 1.6-1.2 1.7.2.6.9-.7 1.9-1 2.2-.6.4.3.7.1.7-.5 0-1.7-1.6-1.5-3.1.5z"/><use xlink:href="#k" x="-185" y="198"/><use xlink:href="#AC" x="-126" y="146"/><path d="M354.5 508c1 1.1 2 2 2.3 2s-.3-.9-1.3-2-2-2-2.3-2 .3.9 1.3 2z"/><use xlink:href="#U" x="-184" y="232"/><use xlink:href="#x" x="-126" y="172"/><use xlink:href="#G" x="-266" y="274"/><use xlink:href="#W" x="-222" y="228"/><use xlink:href="#AC" x="-110" y="148"/><use xlink:href="#P" x="-199" y="242"/><use xlink:href="#W" x="-204" y="228"/><use xlink:href="#p" x="-174" y="187"/><path d="M360 510.5c-.7.9-1.1 1.7-.9 2 .3.2 1-.5 1.7-1.5 1.4-2.4 1-2.6-.8-.5z"/><use xlink:href="#W" x="-199" y="231"/><use xlink:href="#D" x="-246" y="298"/><use xlink:href="#j" x="-168" y="206"/><use xlink:href="#P" x="-196" y="246"/><use xlink:href="#AC" x="-126" y="154"/><use xlink:href="#W" x="-178" y="234"/><path d="M349.1 515.3c-.8 1-.7 1.4.2 1.4.8 0 1.4-.6 1.4-1.4 0-.7-.1-1.3-.2-1.3-.2 0-.8.6-1.4 1.3zm10.3.2c.1.8.8 2.1 1.6 2.8 1.2 1 1.2.9.2-.4-.6-.9-.9-1.8-.6-2.1s.1-.9-.4-1.2c-.6-.3-.9.1-.8.9z"/><use xlink:href="#j" x="-208" y="210"/><use xlink:href="#V" x="-191" y="241"/><use xlink:href="#G" x="-270" y="286"/><use xlink:href="#K" x="-184" y="264"/><use xlink:href="#d" x="-184" y="232"/><use xlink:href="#AD" x="-162" y="160"/><use xlink:href="#B" x="-322" y="408"/><use xlink:href="#AG" x="-136" y="144"/><use xlink:href="#AC" x="-114" y="166"/><use xlink:href="#u" x="-140" y="196"/><use xlink:href="#J" x="-230" y="272"/><use xlink:href="#s" x="-188" y="201"/><use xlink:href="#W" x="-210" y="248"/><use xlink:href="#N" x="-212" y="265"/><use xlink:href="#k" x="-132" y="220"/><use xlink:href="#V" x="-239" y="255"/><use xlink:href="#N" x="-228" y="269"/><use xlink:href="#R" x="-211" y="263"/><use xlink:href="#AC" x="-124" y="174"/><use xlink:href="#u" x="-140" y="204"/><use xlink:href="#s" x="-184" y="209"/><use xlink:href="#o" x="-150" y="218"/><use xlink:href="#y" x="-120" y="200"/><use xlink:href="#AC" x="-90" y="178"/><use xlink:href="#p" x="-132" y="216"/><use xlink:href="#G" x="-246" y="306"/><use xlink:href="#j" x="-140" y="236"/><use xlink:href="#K" x="-72" y="286"/><use xlink:href="#y" x="-110" y="206"/><use xlink:href="#y" x="-124" y="208"/><use xlink:href="#p" x="16" y="225"/><use xlink:href="#AC" x="-114" y="190"/><use xlink:href="#s" x="-188" y="225"/><use xlink:href="#D" x="-264" y="342"/><use xlink:href="#p" x="-152" y="233"/><use xlink:href="#AC" x="16" y="196"/><use xlink:href="#AC" x="-124" y="198"/><use xlink:href="#y" x="-136" y="228"/><use xlink:href="#o" x="-152" y="248"/><use xlink:href="#o" x="-158" y="250"/><use xlink:href="#R" x="-227" y="303"/><use xlink:href="#y" x="-10" y="234"/><use xlink:href="#N" x="-120" y="310"/><use xlink:href="#y" x="-132" y="236"/><use xlink:href="#j" x="-15" y="270"/><use xlink:href="#p" x="-166" y="254"/><use xlink:href="#z" x="-184" y="234"/><use xlink:href="#AC" x="-126" y="218"/><use xlink:href="#k" x="-57" y="272"/><use xlink:href="#p" x="-54" y="259"/><use xlink:href="#C" x="-170" y="376"/><use xlink:href="#o" x="-56" y="266"/><use xlink:href="#N" x="-254" y="327"/><use xlink:href="#p" x="-66" y="267"/><use xlink:href="#s" x="-100" y="269"/><use xlink:href="#AI" x="-128" y="186"/><use xlink:href="#y" x="-48" y="266"/><use xlink:href="#o" x="-190" y="286"/><use xlink:href="#AA" x="-194" y="260"/><use xlink:href="#o" x="-202" y="288"/><use xlink:href="#AD" x="-90" y="244"/><use xlink:href="#y" x="-52" y="270"/><use xlink:href="#k" x="-201" y="302"/><use xlink:href="#AC" x="-154" y="250"/><use xlink:href="#D" x="-176" y="398"/><use xlink:href="#s" x="-232" y="287"/><use xlink:href="#W" x="-154" y="336"/><use xlink:href="#n" x="-194" y="300"/><use xlink:href="#K" x="-295" y="363"/><use xlink:href="#v" x="-110" y="288"/><use xlink:href="#k" x="-72" y="312"/><use xlink:href="#AC" x="-62" y="262"/><use xlink:href="#AV" x="-246" y="248"/><use xlink:href="#N" x="-290" y="362"/><use xlink:href="#j" x="-219" y="322"/><use xlink:href="#B" x="-386" y="512"/><use xlink:href="#R" x="-271" y="359"/><use xlink:href="#R" x="-169" y="359"/><use xlink:href="#AG" x="-190" y="248"/><use xlink:href="#y" x="-84" y="292"/><use xlink:href="#j" x="-118" y="324"/><use xlink:href="#L" x="-276" y="370"/><use xlink:href="#o" x="-202" y="312"/><use xlink:href="#n" x="-206" y="316"/><use xlink:href="#AC" x="-84" y="274"/><use xlink:href="#AN" x="-256" y="192"/><use xlink:href="#F" x="-324" y="412"/><use xlink:href="#k" x="-211" y="328"/><use xlink:href="#AC" x="-164" y="276"/><use xlink:href="#p" x="-226" y="315"/><use xlink:href="#n" x="-114" y="320"/><use xlink:href="#j" x="-126" y="332"/><use xlink:href="#W" x="-278" y="360"/><use xlink:href="#W" x="-158" y="360"/><use xlink:href="#y" x="-200" y="304"/><use xlink:href="#y" x="-186" y="304"/><use xlink:href="#AA" x="-110" y="296"/><use xlink:href="#AC" x="-172" y="284"/><use xlink:href="#k" x="-127" y="336"/><use xlink:href="#o" x="-226" y="326"/><use xlink:href="#j" x="-229" y="342"/><use xlink:href="#V" x="-194" y="372"/><use xlink:href="#n" x="-226" y="332"/><use xlink:href="#AC" x="-94" y="290"/><use xlink:href="#k" x="-134" y="342"/><use xlink:href="#j" x="-226" y="346"/><use xlink:href="#p" x="-144" y="332"/><use xlink:href="#j" x="-151" y="350"/><use xlink:href="#n" x="-234" y="340"/><use xlink:href="#V" x="-291" y="383"/><use xlink:href="#AA" x="-214" y="312"/><use xlink:href="#G" x="-334" y="426"/><use xlink:href="#E" x="-268" y="440"/><use xlink:href="#s" x="-164" y="333"/><use xlink:href="#D" x="-364" y="448"/><use xlink:href="#y" x="-116" y="324"/><use xlink:href="#D" x="-342" y="450"/><use xlink:href="#L" x="-294" y="402"/><use xlink:href="#G" x="-222" y="430"/><use xlink:href="#N" x="-352" y="403"/><use xlink:href="#n" x="-238" y="348"/><use xlink:href="#y" x="-120" y="328"/><use xlink:href="#AC" x="-106" y="306"/><use xlink:href="#m" x="-180" y="355"/><use xlink:href="#p" x="-116" y="344"/><use xlink:href="#AG" x="-202" y="286"/><use xlink:href="#k" x="-165" y="360"/><use xlink:href="#n" x="-128" y="350"/><use xlink:href="#n" x="-232" y="352"/><use xlink:href="#y" x="-120" y="332"/><use xlink:href="#J" x="-316" y="416"/><use xlink:href="#j" x="-169" y="366"/><use xlink:href="#y" x="-224" y="336"/><use xlink:href="#AG" x="-116" y="292"/><use xlink:href="#j" x="-243" y="370"/><use xlink:href="#k" x="-261" y="370"/><use xlink:href="#n" x="-246" y="360"/><use xlink:href="#o" x="-246" y="358"/><use xlink:href="#L" x="-304" y="416"/><use xlink:href="#p" x="-158" y="358"/><use xlink:href="#o" x="-250" y="362"/><use xlink:href="#k" x="-180" y="374"/><use xlink:href="#o" x="-242" y="364"/><path d="M305.5 684c-.2.3.5.6 1.5.7 1.1.1 2.2-.2 2.4-.5.3-.4-.4-.8-1.5-.8s-2.2.3-2.4.6z"/><use xlink:href="#j" x="-269" y="380"/><use xlink:href="#AP" x="-142" y="224"/><use xlink:href="#n" x="-158" y="368"/><use xlink:href="#D" x="-296" y="474"/><use xlink:href="#AN" x="-280" y="244"/><use xlink:href="#C" x="-312" y="480"/><use xlink:href="#j" x="-181" y="382"/><use xlink:href="#k" x="-161" y="380"/><use xlink:href="#P" x="-319" y="424"/><use xlink:href="#E" x="-284" y="470"/><use xlink:href="#k" x="-251" y="384"/><use xlink:href="#F" x="-296" y="468"/><use xlink:href="#s" x="-210" y="365"/><use xlink:href="#k" x="-166" y="384"/><path d="M213.3 695.1c-.2 2.3.3 2.5 1 .4.4-.8.3-1.6-.1-1.9s-.9.4-.9 1.5z"/><use xlink:href="#y" x="-232" y="356"/><use xlink:href="#y" x="-228" y="356"/><use xlink:href="#p" x="-248" y="371"/><use xlink:href="#O" x="-250" y="432"/><use xlink:href="#n" x="-288" y="380"/><use xlink:href="#y" x="-144" y="360"/><path d="M281.6 699.9c.9.9 3.4.9 3.4.1 0-.5-.9-.8-2-.7-1 .1-1.7.3-1.4.6z"/><use xlink:href="#AA" x="-258" y="354"/><use xlink:href="#o" x="-264" y="382"/><use xlink:href="#W" x="-263" y="423"/><use xlink:href="#D" x="-280" y="490"/><use xlink:href="#n" x="-198" y="386"/><use xlink:href="#j" x="-201" y="398"/><use xlink:href="#j" x="-211" y="402"/><use xlink:href="#F" x="-288" y="484"/><use xlink:href="#L" x="-236" y="446"/><use xlink:href="#N" x="-284" y="446"/><use xlink:href="#N" x="-262" y="446"/><use xlink:href="#j" x="-277" y="404"/><use xlink:href="#n" x="-258" y="392"/><use xlink:href="#o" x="-190" y="390"/><use xlink:href="#k" x="-163" y="402"/><use xlink:href="#f" x="-264" y="416"/><use xlink:href="#n" x="-186" y="396"/><use xlink:href="#M" x="-294" y="454"/><use xlink:href="#k" x="-211" y="412"/><use xlink:href="#AF" x="-180" y="340"/><use xlink:href="#p" x="-208" y="400"/><use xlink:href="#V" x="-286" y="450"/><use xlink:href="#n" x="-198" y="410"/><use xlink:href="#s" x="-240" y="403"/><use xlink:href="#n" x="-226" y="416"/><use xlink:href="#AG" x="-190" y="352"/><use xlink:href="#F" x="-322" y="512"/><use xlink:href="#y" x="-212" y="400"/><use xlink:href="#P" x="-283" y="472"/><use xlink:href="#s" x="-260" y="413"/><use xlink:href="#F" x="-304" y="516"/><use xlink:href="#C" x="-382" y="538"/><use xlink:href="#K" x="-287" y="499"/><defs ><path id="B" d="M659 115.9c0 .6.4 1.3 1 1.6s.7-.1.4-.9c-.7-1.8-1.4-2.1-1.4-.7z"/><path id="C" d="M605.6 208.7c-.6 1.4-.5 1.5.5.6.7-.7 1-1.5.7-1.8s-.9.2-1.2 1.2z"/><path id="D" d="M595.5 213.1c-.4.6-.5 1.2-.2 1.5.2.3.7-.2 1-1.1.7-1.7.1-2-.8-.4z"/><path id="E" d="M595 219.5c0 .7 3 1.3 3.4.7.3-.4-.4-.9-1.5-.9-1-.1-1.9 0-1.9.2z"/><path id="F" d="M584 224c-.9.6-1 1-.3 1 .6 0 1.5-.5 1.8-1 .8-1.2.4-1.2-1.5 0z"/><path id="G" d="M584.7 234.1c.7.7 1.5 1 1.8.7s-.2-.9-1.2-1.2c-1.4-.6-1.5-.5-.6.5z"/><path id="H" d="M577 240a1.08 1.08 0 0 0 1 1c.6 0 1-.5 1-1a.94.94 0 0 0-1-1c-.5 0-1 .4-1 1z"/><path id="I" d="M563.8 253.7c.7.3 1.6.2 1.9-.1.4-.3-.2-.6-1.3-.5-1.1 0-1.4.3-.6.6z"/><path id="J" d="M561.4 256c0 1.3.4 1.6 1 1 .7-.7.7-1.3 0-2-.6-.6-1-.3-1 1z"/><path id="K" d="M542.9 257.7c-1.3 1.6-1.2 1.7.4.4s2.1-2.1 1.3-2.1c-.2 0-1 .8-1.7 1.7z"/><path id="L" d="M543 261.4c0 .2.7.7 1.6 1 .8.3 1.2.2.9-.4-.6-1-2.5-1.4-2.5-.6z"/><path id="M" d="M559 261.9c0 .6.4 1.2.8 1.5.5.3.9-.1.9-.9s-.4-1.5-.9-1.5c-.4 0-.8.4-.8.9z"/><path id="N" d="M551.5 262.9c-.3.5-.2 1.2.3 1.5s.9-.1.9-.9c0-1.7-.3-1.9-1.2-.6z"/><path id="O" d="M541.9 264.7c-1.2 1.6-1.2 1.7.2.6.9-.7 2-.9 2.4-.5.5.4.5.1.1-.6-.9-1.6-1.1-1.5-2.7.5z"/><path id="P" d="M534.5 266.1c-.3.4.2.6 1 .5 2.1-.3 2.8-1.3 1-1.3-.9 0-1.8.4-2 .8z"/><path id="Q" d="M531.3 269.3c0 .8.6 1.4 1.4 1.4.9 0 1-.4.2-1.4-.6-.7-1.2-1.3-1.4-1.3-.1 0-.2.6-.2 1.3z"/><path id="R" d="M549.5 269c-.3.6.1.7.9.4 1.8-.7 2.1-1.4.7-1.4-.6 0-1.3.4-1.6 1z"/><path id="S" d="M531.3 274.7c0 .9.4 1 1.4.2.7-.6 1.3-1.2 1.3-1.4 0-.1-.6-.2-1.3-.2-.8 0-1.4.6-1.4 1.4z"/><path id="T" d="M538.2 275.6c1 1 2 1.6 2.2 1.3.3-.3-.5-1.1-1.7-1.8-2.1-1.3-2.1-1.2-.5.5z"/><path id="U" d="M548.4 276.2c-1.2 1.4-1.3 1.8-.3 1 .9-.6 1.8-1 2.1-.7.2.3.5-.2.5-1 0-1.9 0-1.9-2.3.7z"/><path id="V" d="M533.9 276.7c-1.3 1.6-1.2 1.7.4.4.9-.7 1.7-1.5 1.7-1.7 0-.8-.8-.3-2.1 1.3z"/><path id="W" d="M544 279.4c0 .2.8 1 1.8 1.7 1.5 1.3 1.6 1.2.3-.4s-2.1-2.1-2.1-1.3z"/><path id="X" d="M524.9 283.6c-1.3 1.6-2.5 6.4-1.3 5.2.3-.3.6-1.3.8-2.1.1-.8.8-2.2 1.5-3.1s1.1-1.6.8-1.6c-.2 0-1.1.7-1.8 1.6z"/><path id="Y" d="M532.4 283.8c2.3 2.6 2.3 2.6 2.3.7 0-.8-.3-1.3-.5-1-.3.3-1.2-.1-2.1-.7-1-.8-.9-.4.3 1z"/><path id="Z" d="M537.3 283.5c0 .8.3 1.3.5 1 .3-.3 1.2.1 2.1.7 1 .8.9.4-.3-1-2.3-2.6-2.3-2.6-2.3-.7z"/><path id="a" d="M513.4 284.2c-.4.7-.4 1 .1.6.4-.4 1.5-.2 2.4.5 1.4 1.1 1.4 1 .2-.6-1.6-2-1.8-2.1-2.7-.5z"/><path id="b" d="M537.3 287.5c0 .8.3 1.3.5 1 .3-.3 1.5.3 2.6 1.2 1.5 1.4 1.8 1.4.8.2-.6-.9-.8-2-.4-2.5s.3-.6-.2-.2-1.4.3-2.1-.2c-.8-.7-1.2-.5-1.2.5z"/><path id="c" d="M515.5 291c-.4.6-1 .8-1.4.6-.4-.3-.8.1-.8.9 0 1.3.4 1.2 1.9-.2 1.8-1.6 2.2-2.3 1.4-2.3-.3 0-.8.5-1.1 1z"/><path id="d" d="M537.3 291.3c0 .7.9 1.4 2 1.4 1.1.1 1.8.1 1.6 0-.2-.2-1.1-.8-2-1.5-1.2-.9-1.6-.9-1.6.1z"/><path id="e" d="M523.7 299.2c1.9 2.1 3.1 2.5 1.4.5-.6-.8-.9-1.6-.6-1.9.3-.2-.2-.5-1-.5-1.3 0-1.3.3.2 1.9z"/><path id="f" d="M534 297.5c0 .2.6.8 1.3 1.4 1 .8 1.4.7 1.4-.2 0-.8-.6-1.4-1.4-1.4-.7 0-1.3.1-1.3.2z"/><path id="g" d="M528.6 299.5c-1.1.8-1.5 1.5-.9 1.5s1.6-.7 2.3-1.5c1.6-1.9 1.1-1.9-1.4 0z"/><path id="h" d="M531.3 300.8c-.8 1.4-.8 1.9.1 1.9.7 0 1.3-.9 1.3-1.9.1-1 .1-1.8 0-1.8s-.7.8-1.4 1.8z"/><path id="i" d="M509.4 303.1c-.3.6-.2 1.5.3 2s.9.1.9-1.1c0-2.3-.2-2.4-1.2-.9z"/><path id="j" d="M486.6 306.2c.3.5 1 .6 1.5.3 1.3-.9 1.1-1.2-.6-1.2-.8 0-1.2.4-.9.9z"/><path id="k" d="M482.6 307.8c-.3.5.1.9.9.9s1.2-.4.9-.9c-.3-.4-.7-.8-.9-.8s-.6.4-.9.8z"/><path id="l" d="M506.9 310.3c.6.8.7 1.8.3 2.2-.4.5-.1.5.6.1 1-.6 1-1.1.1-2.2-.6-.8-1.4-1.4-1.6-1.4-.3 0 0 .6.6 1.3z"/><path id="m" d="M517.4 311.4c.1.8.5 1.8.8 2.2.4.3.5-.1.4-1-.1-.8-.5-1.8-.8-2.2-.4-.3-.5.1-.4 1z"/><path id="n" d="M471.5 318c-.3.5-.1 1 .4 1 .6 0 1.1-.5 1.1-1 0-.6-.2-1-.4-1-.3 0-.8.4-1.1 1z"/><path id="o" d="M475 320c0 .5.5 1 1.1 1 .5 0 .7-.5.4-1-.3-.6-.8-1-1.1-1-.2 0-.4.4-.4 1z"/><path id="p" d="M475.3 323.5c0 .8.4 1.2.9.9s.6-1 .3-1.5c-.9-1.3-1.2-1.1-1.2.6z"/><path id="q" d="M489.6 324.2c.3.4 1.1.5 1.9.1 2.1-.7 1.9-1.2-.4-1-1.1 0-1.8.5-1.5.9z"/><path id="r" d="M489.7 327c.7.8 2 1.5 2.9 1.6s1.3-.1.9-.4c-.4-.4-1-.7-1.3-.7-.4 0-1.4-.4-2.2-.9-1.2-.7-1.3-.6-.3.4z"/><path id="s" d="M505.9 326.2c-.5 1.8-.6 3.8-.1 3.4.7-.8 1.2-3.6.6-3.6-.2 0-.4.1-.5.2z"/><path id="t" d="M478.7 330.1c.7.9 1.1 1.8.8 2.1s.3 1.1 1.2 1.9c1.6 1.2 1.7 1.2.6-.2-.7-.9-1.1-1.8-.8-2.1s-.3-1.1-1.2-1.9c-1.6-1.2-1.7-1.2-.6.2z"/><path id="u" d="M486.6 330.2c.3.4.9.8 1.5.8.5 0 .9-.4.9-.8 0-.5-.7-.9-1.5-.9s-1.2.4-.9.9z"/><path id="v" d="M483.7 332.5c-.4.8-.3 1.6.1 1.9s.9-.4.9-1.5c.2-2.3-.3-2.5-1-.4z"/><path id="w" d="M467 334.2c0 .4.4.8.9.8.6 0 1.2-.4 1.5-.8.3-.5-.1-.9-.9-.9s-1.5.4-1.5.9z"/><path id="x" d="M497.5 335c-.4.6-1 .8-1.4.6-.4-.3-.8.1-.8.9 0 1 .4 1.2 1.2.5.7-.5 1.4-.8 1.7-.5.2.3.5-.2.5-1 0-1.8-.3-1.9-1.2-.5z"/><path id="y" d="M449.5 338c.3.5.8 1 1.1 1 .2 0 .4-.5.4-1 0-.6-.5-1-1.1-1-.5 0-.7.4-.4 1z"/><path id="z" d="M483.1 345.3c-1.3 2.1-1.2 2.1.5.5 1-1 1.6-2 1.3-2.2-.3-.3-1.1.5-1.8 1.7z"/><path id="AA" d="M461.6 347.3c.3 1 .9 1.5 1.2 1.2s0-1.1-.7-1.8c-1-.9-1.1-.8-.5.6z"/><path id="AB" d="M469.3 347.5c0 .8.4 1.5.9 1.5.4 0 .8-.4.8-.9 0-.6-.4-1.2-.8-1.5-.5-.3-.9.1-.9.9z"/><path id="AC" d="M439 360.1c0 .5.5.7 1 .4.6-.3 1-.8 1-1.1 0-.2-.4-.4-1-.4-.5 0-1 .5-1 1.1z"/><path id="AD" d="M483.3 364.9c0 1.1.5 1.8.9 1.5s.5-1.1.1-1.9c-.7-2.1-1.2-1.9-1 .4z"/><path id="AE" d="M421.3 365.7c.4.3.1 1.3-.6 2.2-1.1 1.4-1 1.4.5.2 1.6-1.2 1.6-3.1.1-3.1-.4 0-.3.3 0 .7z"/><path id="AF" d="M462.6 379.8c-.2.4.4.8 1.4.8s1.6-.4 1.4-.8c-.3-.4-.9-.8-1.4-.8s-1.1.4-1.4.8z"/><path id="AG" d="M447.4 381.8c.4.3 1.4.7 2.2.8.9.1 1.3 0 1-.4-.4-.3-1.4-.7-2.2-.8-.9-.1-1.3 0-1 .4z"/><path id="AH" d="M540 414.5c-.7.8-1.6 1.3-1.9 1-.4-.2-.8.2-.8 1 0 1 .4 1.2 1.2.5.7-.5 1.5-.8 1.8-.5.4.3.5.2.2-.2-.3-.3 0-1.2.6-2 .6-.7.9-1.3.6-1.3-.2 0-1 .7-1.7 1.5z"/><path id="AI" d="M518.6 417.8c-.3.5.1.9.9.9s1.5-.4 1.5-.9c0-.4-.4-.8-.9-.8-.6 0-1.2.4-1.5.8z"/><path id="AJ" d="M556.9 419.6c-1.1 1.4-2.4 5.2-1.4 4.2.2-.1.3-.6.2-.9-.1-.4.7-1.6 1.7-2.8 1.1-1.2 1.7-2.1 1.4-2.1s-1.2.7-1.9 1.6z"/><path id="AK" d="M543 422.4c.7.7 1.3.7 2 0 .6-.6.3-1-1-1s-1.6.4-1 1z"/><path id="AL" d="M529.7 426.7c-1 .9-.9 2.3.1 2.3.5 0 .9-.7.9-1.5 0-1.7-.1-1.8-1-.8z"/><path id="AM" d="M331 441.8c0 .5.7.9 1.5.9s1.2-.4.9-.9c-.3-.4-.9-.8-1.5-.8-.5 0-.9.4-.9.8z"/><path id="AN" d="M511.3 444.5c0 .8.4 1.2.9.9.4-.3.8-.9.8-1.5 0-.5-.4-.9-.8-.9-.5 0-.9.7-.9 1.5z"/><path id="AO" d="M326.8 462.1c.6.9.8 2 .4 2.5s-.3.6.2.2 1.4-.3 2.1.2c.8.7 1.2.5 1.2-.5 0-.8-.3-1.3-.5-1-.3.3-1.5-.3-2.6-1.2-1.5-1.4-1.8-1.4-.8-.2z"/><path id="AP" d="M363.6 461.8c-.2.4-.1 1.4.4 2.2.7 1.1.9.9.7-.8-.1-2.4-.3-2.6-1.1-1.4z"/><path id="AQ" d="M295.4 467.2l-1.9 2.3 2.3-1.9c1.2-1.1 2.2-2.1 2.2-2.3 0-.8-.8-.2-2.6 1.9z"/><path id="AR" d="M311.1 466.7c.7 1.2 1.5 2 1.8 1.7.3-.2-.3-1.2-1.3-2.2-1.7-1.6-1.8-1.6-.5.5z"/><path id="AS" d="M356.6 467.5c-1.8 1.4-1.8 1.4.1 1.2 1.1 0 2-.7 2-1.4s-.1-1.3-.1-1.3c-.1 0-.9.7-2 1.5z"/><path id="AT" d="M325.9 604.7c-1.3 1.7-1.3 1.7.6.3l2.4-1.7c.2-.2 0-.3-.6-.3s-1.7.8-2.4 1.7z"/><path id="AU" d="M609 238.3c0 .2.6 1 1.4 1.6 1.1.9 1.6.9 2.2-.1.4-.7.4-1-.1-.6-.4.4-1.4.3-2.2-.3-.7-.6-1.3-.9-1.3-.6z"/><path id="AV" d="M529.5 375c-.4.6-1.1.7-1.7.4-.7-.4-.8-.2-.4.5.6.9 1.1.9 2.2 0 1.4-1.1 1.8-1.9 1-1.9-.3 0-.8.5-1.1 1z"/></defs></svg>